<svg width="722" height="253" viewBox="0 0 722 253" fill="none" xmlns="http://www.w3.org/2000/svg">
<path d="M652 119L651.995 118.999L661.182 54.0068L661.188 54L661.191 53.9961L675.315 66.1484V30C675.315 13.4342 661.886 0.00488281 645.32 0.00488281H30C13.4342 0.00488281 0.00488281 13.4342 0.00488281 30V223C0.00488281 239.566 13.4342 252.995 30 252.995H645.32C661.886 252.995 675.315 239.566 675.315 223V114.782L652.001 119.005M652 119L652.001 119.005M652 119L652.001 119.005M652 119L652.005 119.001V119L652.016 119.002L652.001 119.005M675.315 66.1621V114.772L652.006 118.993L661.191 54.0098L675.315 66.1621ZM721.988 106.319L675.325 114.771V66.1699L721.988 106.319Z" fill="#393939" stroke="#393939" stroke-width="0.01"/>
</svg>
