<svg width="967" height="204" viewBox="0 0 967 204" fill="none" xmlns="http://www.w3.org/2000/svg">
<g filter="url(#filter0_d_418_358)">
<path d="M10.7994 135.172V141.931H4V135.172H10.7994ZM10.7994 128.414V135.172H4V128.414H10.7994ZM10.7994 121.655V128.414H4V121.655H10.7994ZM10.7994 114.897V121.655H4V114.897H10.7994ZM10.7994 108.138V114.897H4V108.138H10.7994ZM10.7994 101.379V108.138H4V101.379H10.7994ZM10.7994 94.6207V101.379H4V94.6207H10.7994ZM10.7994 87.8621V94.6207H4V87.8621H10.7994ZM10.7994 81.1035V87.8621H4V81.1035H10.7994ZM10.7994 74.3448V81.1035H4V74.3448H10.7994ZM10.7994 67.5862V74.3448H4V67.5862H10.7994ZM17.5988 67.5862V74.3448H10.7994V67.5862H17.5988ZM17.5988 74.3448V81.1035H10.7994V74.3448H17.5988ZM17.5988 81.1035V87.8621H10.7994V81.1035H17.5988ZM17.5988 87.8621V94.6207H10.7994V87.8621H17.5988ZM17.5988 94.6207V101.379H10.7994V94.6207H17.5988ZM17.5988 101.379V108.138H10.7994V101.379H17.5988ZM17.5988 108.138V114.897H10.7994V108.138H17.5988ZM24.3982 114.897V121.655H17.5988V114.897H24.3982ZM24.3982 121.655V128.414H17.5988V121.655H24.3982ZM24.3982 128.414V135.172H17.5988V128.414H24.3982ZM24.3982 135.172V141.931H17.5988V135.172H24.3982ZM24.3982 141.931V148.69H17.5988V141.931H24.3982ZM24.3982 148.69V155.448H17.5988V148.69H24.3982ZM24.3982 155.448V162.207H17.5988V155.448H24.3982ZM37.997 162.207V168.966H31.1976V162.207H37.997ZM37.997 155.448V162.207H31.1976V155.448H37.997ZM37.997 148.69V155.448H31.1976V148.69H37.997ZM37.997 141.931V148.69H31.1976V141.931H37.997ZM37.997 135.172V141.931H31.1976V135.172H37.997ZM37.997 128.414V135.172H31.1976V128.414H37.997ZM37.997 121.655V128.414H31.1976V121.655H37.997ZM37.997 114.897V121.655H31.1976V114.897H37.997ZM31.1976 114.897V121.655H24.3982V114.897H31.1976ZM31.1976 108.138V114.897H24.3982V108.138H31.1976ZM31.1976 121.655V128.414H24.3982V121.655H31.1976ZM31.1976 128.414V135.172H24.3982V128.414H31.1976ZM31.1976 135.172V141.931H24.3982V135.172H31.1976ZM31.1976 141.931V148.69H24.3982V141.931H31.1976ZM31.1976 148.69V155.448H24.3982V148.69H31.1976ZM31.1976 155.448V162.207H24.3982V155.448H31.1976ZM17.5988 148.69V155.448H10.7994V148.69H17.5988ZM17.5988 141.931V148.69H10.7994V141.931H17.5988ZM17.5988 135.172V141.931H10.7994V135.172H17.5988ZM17.5988 128.414V135.172H10.7994V128.414H17.5988ZM17.5988 121.655V128.414H10.7994V121.655H17.5988ZM17.5988 114.897V121.655H10.7994V114.897H17.5988ZM10.7994 60.8276V67.5862H4V60.8276H10.7994ZM31.1976 60.8276V67.5862H24.3982V60.8276H31.1976ZM31.1976 67.5862V74.3448H24.3982V67.5862H31.1976ZM31.1976 74.3448V81.1035H24.3982V74.3448H31.1976ZM31.1976 81.1035V87.8621H24.3982V81.1035H31.1976ZM31.1976 87.8621V94.6207H24.3982V87.8621H31.1976ZM37.997 94.6207V101.379H31.1976V94.6207H37.997ZM37.997 101.379V108.138H31.1976V101.379H37.997ZM37.997 108.138V114.897H31.1976V108.138H37.997ZM37.997 87.8621V94.6207H31.1976V87.8621H37.997ZM37.997 81.1035V87.8621H31.1976V81.1035H37.997ZM37.997 74.3448V81.1035H31.1976V74.3448H37.997ZM37.997 67.5862V74.3448H31.1976V67.5862H37.997ZM37.997 60.8276V67.5862H31.1976V60.8276H37.997ZM17.5988 60.8276V67.5862H10.7994V60.8276H17.5988ZM24.3982 60.8276V67.5862H17.5988V60.8276H24.3982ZM24.3982 67.5862V74.3448H17.5988V67.5862H24.3982ZM24.3982 74.3448V81.1035H17.5988V74.3448H24.3982ZM24.3982 81.1035V87.8621H17.5988V81.1035H24.3982ZM24.3982 87.8621V94.6207H17.5988V87.8621H24.3982ZM24.3982 94.6207V101.379H17.5988V94.6207H24.3982ZM24.3982 101.379V108.138H17.5988V101.379H24.3982ZM24.3982 108.138V114.897H17.5988V108.138H24.3982ZM31.1976 101.379V108.138H24.3982V101.379H31.1976ZM31.1976 94.6207V101.379H24.3982V94.6207H31.1976ZM92.3921 162.207V168.966H85.5927V162.207H92.3921ZM92.3921 155.448V162.207H85.5927V155.448H92.3921ZM92.3921 148.69V155.448H85.5927V148.69H92.3921ZM92.3921 141.931V148.69H85.5927V141.931H92.3921ZM92.3921 135.172V141.931H85.5927V135.172H92.3921ZM92.3921 128.414V135.172H85.5927V128.414H92.3921ZM92.3921 121.655V128.414H85.5927V121.655H92.3921ZM105.991 121.655V128.414H99.1915V121.655H105.991ZM105.991 128.414V135.172H99.1915V128.414H105.991ZM105.991 135.172V141.931H99.1915V135.172H105.991ZM105.991 141.931V148.69H99.1915V141.931H105.991ZM105.991 148.69V155.448H99.1915V148.69H105.991ZM105.991 155.448V162.207H99.1915V155.448H105.991ZM119.59 135.172V141.931H112.79V135.172H119.59ZM119.59 128.414V135.172H112.79V128.414H119.59ZM119.59 121.655V128.414H112.79V121.655H119.59ZM112.79 121.655V128.414H105.991V121.655H112.79ZM112.79 128.414V135.172H105.991V128.414H112.79ZM112.79 135.172V141.931H105.991V135.172H112.79ZM112.79 141.931V148.69H105.991V141.931H112.79ZM112.79 148.69V155.448H105.991V148.69H112.79ZM99.1915 155.448V162.207H92.3921V155.448H99.1915ZM99.1915 148.69V155.448H92.3921V148.69H99.1915ZM99.1915 141.931V148.69H92.3921V141.931H99.1915ZM99.1915 135.172V141.931H92.3921V135.172H99.1915ZM99.1915 128.414V135.172H92.3921V128.414H99.1915ZM99.1915 121.655V128.414H92.3921V121.655H99.1915ZM44.7964 162.207V168.966H37.997V162.207H44.7964ZM51.5958 162.207V168.966H44.7964V162.207H51.5958ZM58.3951 162.207V168.966H51.5958V162.207H58.3951ZM65.1945 162.207V168.966H58.3951V162.207H65.1945ZM71.9939 162.207V168.966H65.1945V162.207H71.9939ZM85.5927 162.207V168.966H78.7933V162.207H85.5927ZM85.5927 155.448V162.207H78.7933V155.448H85.5927ZM71.9939 155.448V162.207H65.1945V155.448H71.9939ZM65.1945 155.448V162.207H58.3951V155.448H65.1945ZM58.3951 155.448V162.207H51.5958V155.448H58.3951ZM51.5958 155.448V162.207H44.7964V155.448H51.5958ZM44.7964 155.448V162.207H37.997V155.448H44.7964ZM44.7964 148.69V155.448H37.997V148.69H44.7964ZM51.5958 148.69V155.448H44.7964V148.69H51.5958ZM58.3951 148.69V155.448H51.5958V148.69H58.3951ZM65.1945 148.69V155.448H58.3951V148.69H65.1945ZM71.9939 148.69V155.448H65.1945V148.69H71.9939ZM85.5927 148.69V155.448H78.7933V148.69H85.5927ZM85.5927 141.931V148.69H78.7933V141.931H85.5927ZM71.9939 141.931V148.69H65.1945V141.931H71.9939ZM65.1945 141.931V148.69H58.3951V141.931H65.1945ZM58.3951 141.931V148.69H51.5958V141.931H58.3951ZM51.5958 141.931V148.69H44.7964V141.931H51.5958ZM44.7964 141.931V148.69H37.997V141.931H44.7964ZM44.7964 135.172V141.931H37.997V135.172H44.7964ZM85.5927 135.172V141.931H78.7933V135.172H85.5927ZM112.79 33.7931V27.0345H119.59V33.7931H112.79ZM112.79 40.5517V33.7931H119.59V40.5517H112.79ZM112.79 47.3103V40.5517H119.59V47.3103H112.79ZM99.1915 47.3103V40.5517H105.991V47.3103H99.1915ZM99.1915 40.5517V33.7931H105.991V40.5517H99.1915ZM99.1915 33.7931V27.0345H105.991V33.7931H99.1915ZM99.1915 27.0345V20.2759H105.991V27.0345H99.1915ZM99.1915 20.2759V13.5172H105.991V20.2759H99.1915ZM99.1915 13.5172V6.75863H105.991V13.5172H99.1915ZM85.5927 6.75863V0H92.3921V6.75863H85.5927ZM85.5927 13.5172V6.75863H92.3921V13.5172H85.5927ZM85.5927 20.2759V13.5172H92.3921V20.2759H85.5927ZM85.5927 27.0345V20.2759H92.3921V27.0345H85.5927ZM85.5927 33.7931V27.0345H92.3921V33.7931H85.5927ZM85.5927 40.5517V33.7931H92.3921V40.5517H85.5927ZM85.5927 47.3103V40.5517H92.3921V47.3103H85.5927ZM92.3921 47.3103V40.5517H99.1915V47.3103H92.3921ZM92.3921 40.5517V33.7931H99.1915V40.5517H92.3921ZM92.3921 33.7931V27.0345H99.1915V33.7931H92.3921ZM92.3921 27.0345V20.2759H99.1915V27.0345H92.3921ZM92.3921 20.2759V13.5172H99.1915V20.2759H92.3921ZM92.3921 13.5172V6.75863H99.1915V13.5172H92.3921ZM105.991 20.2759V13.5172H112.79V20.2759H105.991ZM105.991 27.0345V20.2759H112.79V27.0345H105.991ZM105.991 33.7931V27.0345H112.79V33.7931H105.991ZM105.991 40.5517V33.7931H112.79V40.5517H105.991ZM105.991 47.3103V40.5517H112.79V47.3103H105.991ZM31.1976 6.75863V0H37.997V6.75863H31.1976ZM31.1976 13.5172V6.75863H37.997V13.5172H31.1976ZM31.1976 20.2759V13.5172H37.997V20.2759H31.1976ZM31.1976 27.0345V20.2759H37.997V27.0345H31.1976ZM31.1976 33.7931V27.0345H37.997V33.7931H31.1976ZM31.1976 40.5517V33.7931H37.997V40.5517H31.1976ZM31.1976 47.3103V40.5517H37.997V47.3103H31.1976ZM17.5988 47.3103V40.5517H24.3982V47.3103H17.5988ZM17.5988 40.5517V33.7931H24.3982V40.5517H17.5988ZM17.5988 33.7931V27.0345H24.3982V33.7931H17.5988ZM17.5988 27.0345V20.2759H24.3982V27.0345H17.5988ZM17.5988 20.2759V13.5172H24.3982V20.2759H17.5988ZM17.5988 13.5172V6.75863H24.3982V13.5172H17.5988ZM4 33.7931V27.0345H10.7994V33.7931H4ZM4 40.5517V33.7931H10.7994V40.5517H4ZM4 47.3103V40.5517H10.7994V47.3103H4ZM10.7994 47.3103V40.5517H17.5988V47.3103H10.7994ZM10.7994 40.5517V33.7931H17.5988V40.5517H10.7994ZM10.7994 33.7931V27.0345H17.5988V33.7931H10.7994ZM10.7994 27.0345V20.2759H17.5988V27.0345H10.7994ZM10.7994 20.2759V13.5172H17.5988V20.2759H10.7994ZM24.3982 13.5172V6.75863H31.1976V13.5172H24.3982ZM24.3982 20.2759V13.5172H31.1976V20.2759H24.3982ZM24.3982 27.0345V20.2759H31.1976V27.0345H24.3982ZM24.3982 33.7931V27.0345H31.1976V33.7931H24.3982ZM24.3982 40.5517V33.7931H31.1976V40.5517H24.3982ZM24.3982 47.3103V40.5517H31.1976V47.3103H24.3982ZM78.7933 6.75863V0H85.5927V6.75863H78.7933ZM65.1945 6.75863V0H71.9939V6.75863H65.1945ZM58.3951 6.75863V0H65.1945V6.75863H58.3951ZM51.5958 6.75863V0H58.3951V6.75863H51.5958ZM44.7964 6.75863V0H51.5958V6.75863H44.7964ZM37.997 6.75863V0H44.7964V6.75863H37.997ZM37.997 13.5172V6.75863H44.7964V13.5172H37.997ZM44.7964 13.5172V6.75863H51.5958V13.5172H44.7964ZM51.5958 13.5172V6.75863H58.3951V13.5172H51.5958ZM58.3951 13.5172V6.75863H65.1945V13.5172H58.3951ZM65.1945 13.5172V6.75863H71.9939V13.5172H65.1945ZM78.7933 13.5172V6.75863H85.5927V13.5172H78.7933ZM78.7933 20.2759V13.5172H85.5927V20.2759H78.7933ZM65.1945 20.2759V13.5172H71.9939V20.2759H65.1945ZM58.3951 20.2759V13.5172H65.1945V20.2759H58.3951ZM51.5958 20.2759V13.5172H58.3951V20.2759H51.5958ZM44.7964 20.2759V13.5172H51.5958V20.2759H44.7964ZM37.997 20.2759V13.5172H44.7964V20.2759H37.997ZM37.997 27.0345V20.2759H44.7964V27.0345H37.997ZM44.7964 27.0345V20.2759H51.5958V27.0345H44.7964ZM51.5958 27.0345V20.2759H58.3951V27.0345H51.5958ZM58.3951 27.0345V20.2759H65.1945V27.0345H58.3951ZM65.1945 27.0345V20.2759H71.9939V27.0345H65.1945ZM78.7933 27.0345V20.2759H85.5927V27.0345H78.7933ZM78.7933 33.7931V27.0345H85.5927V33.7931H78.7933ZM37.997 33.7931V27.0345H44.7964V33.7931H37.997ZM10.7994 54.069V60.8276H4V54.069H10.7994ZM17.5988 54.069V60.8276H10.7994V54.069H17.5988ZM10.7994 47.3103V54.069H4V47.3103H10.7994ZM31.1976 47.3103V54.069H24.3982V47.3103H31.1976ZM31.1976 54.069V60.8276H24.3982V54.069H31.1976ZM37.997 54.069V60.8276H31.1976V54.069H37.997ZM37.997 47.3103V54.069H31.1976V47.3103H37.997ZM17.5988 47.3103V54.069H10.7994V47.3103H17.5988ZM24.3982 47.3103V54.069H17.5988V47.3103H24.3982ZM24.3982 54.069V60.8276H17.5988V54.069H24.3982ZM51.5958 135.172V141.931H44.7964V135.172H51.5958ZM58.3951 135.172V141.931H51.5958V135.172H58.3951ZM65.1945 135.172V141.931H58.3951V135.172H65.1945ZM71.9939 135.172V141.931H65.1945V135.172H71.9939ZM85.5927 128.414V135.172H78.7933V128.414H85.5927ZM44.7964 128.414V135.172H37.997V128.414H44.7964ZM92.3921 114.897V121.655H85.5927V114.897H92.3921ZM99.1915 114.897V121.655H92.3921V114.897H99.1915ZM105.991 114.897V121.655H99.1915V114.897H105.991ZM112.79 114.897V121.655H105.991V114.897H112.79ZM119.59 114.897V121.655H112.79V114.897H119.59ZM44.7964 33.7931V40.5517H37.997V33.7931H44.7964ZM51.5958 27.0345V33.7931H44.7964V27.0345H51.5958ZM58.3951 27.0345V33.7931H51.5958V27.0345H58.3951ZM65.1945 27.0345V33.7931H58.3951V27.0345H65.1945ZM71.9939 27.0345V33.7931H65.1945V27.0345H71.9939ZM85.5927 33.7931V40.5517H78.7933V33.7931H85.5927ZM92.3921 47.3103V54.069H85.5927V47.3103H92.3921ZM99.1915 47.3103V54.069H92.3921V47.3103H99.1915ZM105.991 47.3103V54.069H99.1915V47.3103H105.991ZM112.79 47.3103V54.069H105.991V47.3103H112.79ZM119.59 47.3103V54.069H112.79V47.3103H119.59ZM78.7933 0V6.75863H71.9939V0H78.7933ZM78.7933 6.75863V13.5172H71.9939V6.75863H78.7933ZM78.7933 13.5172V20.2759H71.9939V13.5172H78.7933ZM78.7933 20.2759V27.0345H71.9939V20.2759H78.7933ZM78.7933 27.0345V33.7931H71.9939V27.0345H78.7933ZM78.7933 135.172V141.931H71.9939V135.172H78.7933ZM78.7933 141.931V148.69H71.9939V141.931H78.7933ZM78.7933 148.69V155.448H71.9939V148.69H78.7933ZM78.7933 155.448V162.207H71.9939V155.448H78.7933ZM78.7933 162.207V168.966H71.9939V162.207H78.7933Z" fill="#2FFF00"/>
<path d="M221.448 81.1035V87.8621H214.648V81.1035H221.448ZM228.247 81.1035V87.8621H221.448V81.1035H228.247ZM235.047 81.1035V87.8621H228.247V81.1035H235.047ZM241.846 81.1035V87.8621H235.047V81.1035H241.846ZM248.645 81.1035V87.8621H241.846V81.1035H248.645ZM248.645 74.3448V81.1035H241.846V74.3448H248.645ZM248.645 67.5862V74.3448H241.846V67.5862H248.645ZM241.846 67.5862V74.3448H235.047V67.5862H241.846ZM235.047 67.5862V74.3448H228.247V67.5862H235.047ZM228.247 67.5862V74.3448H221.448V67.5862H228.247ZM228.247 74.3448V81.1035H221.448V74.3448H228.247ZM221.448 74.3448V81.1035H214.648V74.3448H221.448ZM235.047 74.3448V81.1035H228.247V74.3448H235.047ZM241.846 74.3448V81.1035H235.047V74.3448H241.846ZM221.448 67.5862V74.3448H214.648V67.5862H221.448ZM214.648 67.5862V74.3448H207.849V67.5862H214.648ZM214.648 60.8276V67.5862H207.849V60.8276H214.648ZM221.448 60.8276V67.5862H214.648V60.8276H221.448ZM228.247 60.8276V67.5862H221.448V60.8276H228.247ZM235.047 60.8276V67.5862H228.247V60.8276H235.047ZM241.846 60.8276V67.5862H235.047V60.8276H241.846ZM241.846 54.069V60.8276H235.047V54.069H241.846ZM235.047 54.069V60.8276H228.247V54.069H235.047ZM228.247 54.069V60.8276H221.448V54.069H228.247ZM221.448 54.069V60.8276H214.648V54.069H221.448ZM214.648 54.069V60.8276H207.849V54.069H214.648ZM228.247 47.3103V54.069H221.448V47.3103H228.247ZM235.047 47.3103V54.069H228.247V47.3103H235.047ZM221.448 47.3103V54.069H214.648V47.3103H221.448ZM221.448 40.5517V47.3103H214.648V40.5517H221.448ZM214.648 40.5517V47.3103H207.849V40.5517H214.648ZM214.648 47.3103V54.069H207.849V47.3103H214.648ZM207.849 47.3103V54.069H201.05V47.3103H207.849ZM207.849 40.5517V47.3103H201.05V40.5517H207.849ZM207.849 54.069V60.8276H201.05V54.069H207.849ZM201.05 54.069V60.8276H194.25V54.069H201.05ZM201.05 60.8276V67.5862H194.25V60.8276H201.05ZM207.849 60.8276V67.5862H201.05V60.8276H207.849ZM194.25 60.8276V67.5862H187.451V60.8276H194.25ZM194.25 54.069V60.8276H187.451V54.069H194.25ZM194.25 47.3103V54.069H187.451V47.3103H194.25ZM194.25 40.5517V47.3103H187.451V40.5517H194.25ZM201.05 40.5517V47.3103H194.25V40.5517H201.05ZM201.05 47.3103V54.069H194.25V47.3103H201.05ZM187.451 40.5517V47.3103H180.651V40.5517H187.451ZM180.651 40.5517V47.3103H173.852V40.5517H180.651ZM173.852 40.5517V47.3103H167.053V40.5517H173.852ZM173.852 47.3103V54.069H167.053V47.3103H173.852ZM173.852 54.069V60.8276H167.053V54.069H173.852ZM173.852 60.8276V67.5862H167.053V60.8276H173.852ZM180.651 60.8276V67.5862H173.852V60.8276H180.651ZM187.451 60.8276V67.5862H180.651V60.8276H187.451ZM187.451 54.069V60.8276H180.651V54.069H187.451ZM187.451 47.3103V54.069H180.651V47.3103H187.451ZM180.651 47.3103V54.069H173.852V47.3103H180.651ZM180.651 54.069V60.8276H173.852V54.069H180.651ZM167.053 54.069V60.8276H160.253V54.069H167.053ZM167.053 47.3103V54.069H160.253V47.3103H167.053ZM160.253 47.3103V54.069H153.454V47.3103H160.253ZM160.253 54.069V60.8276H153.454V54.069H160.253ZM153.454 54.069V60.8276H146.654V54.069H153.454ZM153.454 60.8276V67.5862H146.654V60.8276H153.454ZM153.454 67.5862V74.3448H146.654V67.5862H153.454ZM160.253 67.5862V74.3448H153.454V67.5862H160.253ZM160.253 60.8276V67.5862H153.454V60.8276H160.253ZM167.053 60.8276V67.5862H160.253V60.8276H167.053ZM167.053 67.5862V74.3448H160.253V67.5862H167.053ZM173.852 67.5862V74.3448H167.053V67.5862H173.852ZM180.651 67.5862V74.3448H173.852V67.5862H180.651ZM146.654 67.5862V74.3448H139.855V67.5862H146.654ZM146.654 74.3448V81.1035H139.855V74.3448H146.654ZM146.654 81.1035V87.8621H139.855V81.1035H146.654ZM146.654 87.8621V94.6207H139.855V87.8621H146.654ZM146.654 94.6207V101.379H139.855V94.6207H146.654ZM146.654 101.379V108.138H139.855V101.379H146.654ZM146.654 108.138V114.897H139.855V108.138H146.654ZM146.654 114.897V121.655H139.855V114.897H146.654ZM146.654 121.655V128.414H139.855V121.655H146.654ZM146.654 128.414V135.172H139.855V128.414H146.654ZM153.454 128.414V135.172H146.654V128.414H153.454ZM153.454 135.172V141.931H146.654V135.172H153.454ZM146.654 135.172V141.931H139.855V135.172H146.654ZM160.253 135.172V141.931H153.454V135.172H160.253ZM167.053 135.172V141.931H160.253V135.172H167.053ZM173.852 135.172V141.931H167.053V135.172H173.852ZM180.651 135.172V141.931H173.852V135.172H180.651ZM173.852 128.414V135.172H167.053V128.414H173.852ZM173.852 121.655V128.414H167.053V121.655H173.852ZM173.852 114.897V121.655H167.053V114.897H173.852ZM173.852 108.138V114.897H167.053V108.138H173.852ZM173.852 101.379V108.138H167.053V101.379H173.852ZM173.852 94.6207V101.379H167.053V94.6207H173.852ZM173.852 87.8621V94.6207H167.053V87.8621H173.852ZM173.852 81.1035V87.8621H167.053V81.1035H173.852ZM173.852 74.3448V81.1035H167.053V74.3448H173.852ZM167.053 74.3448V81.1035H160.253V74.3448H167.053ZM160.253 74.3448V81.1035H153.454V74.3448H160.253ZM153.454 74.3448V81.1035H146.654V74.3448H153.454ZM153.454 81.1035V87.8621H146.654V81.1035H153.454ZM153.454 87.8621V94.6207H146.654V87.8621H153.454ZM153.454 94.6207V101.379H146.654V94.6207H153.454ZM153.454 101.379V108.138H146.654V101.379H153.454ZM153.454 108.138V114.897H146.654V108.138H153.454ZM153.454 114.897V121.655H146.654V114.897H153.454ZM153.454 121.655V128.414H146.654V121.655H153.454ZM160.253 128.414V135.172H153.454V128.414H160.253ZM167.053 128.414V135.172H160.253V128.414H167.053ZM167.053 121.655V128.414H160.253V121.655H167.053ZM167.053 114.897V121.655H160.253V114.897H167.053ZM167.053 108.138V114.897H160.253V108.138H167.053ZM167.053 101.379V108.138H160.253V101.379H167.053ZM160.253 101.379V108.138H153.454V101.379H160.253ZM160.253 94.6207V101.379H153.454V94.6207H160.253ZM160.253 87.8621V94.6207H153.454V87.8621H160.253ZM160.253 81.1035V87.8621H153.454V81.1035H160.253ZM167.053 81.1035V87.8621H160.253V81.1035H167.053ZM167.053 87.8621V94.6207H160.253V87.8621H167.053ZM167.053 94.6207V101.379H160.253V94.6207H167.053ZM160.253 114.897V121.655H153.454V114.897H160.253ZM160.253 121.655V128.414H153.454V121.655H160.253ZM160.253 108.138V114.897H153.454V108.138H160.253ZM221.448 121.655V128.414H214.648V121.655H221.448ZM221.448 128.414V135.172H214.648V128.414H221.448ZM228.247 128.414V135.172H221.448V128.414H228.247ZM235.047 128.414V135.172H228.247V128.414H235.047ZM241.846 128.414V135.172H235.047V128.414H241.846ZM248.645 128.414V135.172H241.846V128.414H248.645ZM248.645 121.655V128.414H241.846V121.655H248.645ZM241.846 121.655V128.414H235.047V121.655H241.846ZM235.047 121.655V128.414H228.247V121.655H235.047ZM228.247 121.655V128.414H221.448V121.655H228.247ZM248.645 135.172V141.931H241.846V135.172H248.645ZM241.846 135.172V141.931H235.047V135.172H241.846ZM235.047 135.172V141.931H228.247V135.172H235.047ZM228.247 135.172V141.931H221.448V135.172H228.247ZM221.448 135.172V141.931H214.648V135.172H221.448ZM214.648 135.172V141.931H207.849V135.172H214.648ZM214.648 141.931V148.69H207.849V141.931H214.648ZM221.448 141.931V148.69H214.648V141.931H221.448ZM228.247 141.931V148.69H221.448V141.931H228.247ZM235.047 141.931V148.69H228.247V141.931H235.047ZM235.047 148.69V155.448H228.247V148.69H235.047ZM241.846 148.69V155.448H235.047V148.69H241.846ZM241.846 141.931V148.69H235.047V141.931H241.846ZM235.047 155.448V162.207H228.247V155.448H235.047ZM228.247 155.448V162.207H221.448V155.448H228.247ZM228.247 148.69V155.448H221.448V148.69H228.247ZM221.448 148.69V155.448H214.648V148.69H221.448ZM221.448 155.448V162.207H214.648V155.448H221.448ZM221.448 162.207V168.966H214.648V162.207H221.448ZM214.648 162.207V168.966H207.849V162.207H214.648ZM207.849 162.207V168.966H201.05V162.207H207.849ZM201.05 162.207V168.966H194.25V162.207H201.05ZM194.25 162.207V168.966H187.451V162.207H194.25ZM187.451 162.207V168.966H180.651V162.207H187.451ZM180.651 162.207V168.966H173.852V162.207H180.651ZM173.852 162.207V168.966H167.053V162.207H173.852ZM180.651 155.448V162.207H173.852V155.448H180.651ZM187.451 155.448V162.207H180.651V155.448H187.451ZM194.25 155.448V162.207H187.451V155.448H194.25ZM201.05 155.448V162.207H194.25V155.448H201.05ZM207.849 155.448V162.207H201.05V155.448H207.849ZM214.648 155.448V162.207H207.849V155.448H214.648ZM214.648 148.69V155.448H207.849V148.69H214.648ZM207.849 148.69V155.448H201.05V148.69H207.849ZM201.05 148.69V155.448H194.25V148.69H201.05ZM194.25 148.69V155.448H187.451V148.69H194.25ZM187.451 148.69V155.448H180.651V148.69H187.451ZM180.651 148.69V155.448H173.852V148.69H180.651ZM173.852 155.448V162.207H167.053V155.448H173.852ZM167.053 155.448V162.207H160.253V155.448H167.053ZM160.253 155.448V162.207H153.454V155.448H160.253ZM160.253 148.69V155.448H153.454V148.69H160.253ZM153.454 148.69V155.448H146.654V148.69H153.454ZM153.454 141.931V148.69H146.654V141.931H153.454ZM160.253 141.931V148.69H153.454V141.931H160.253ZM167.053 141.931V148.69H160.253V141.931H167.053ZM173.852 141.931V148.69H167.053V141.931H173.852ZM180.651 141.931V148.69H173.852V141.931H180.651ZM187.451 141.931V148.69H180.651V141.931H187.451ZM194.25 141.931V148.69H187.451V141.931H194.25ZM201.05 141.931V148.69H194.25V141.931H201.05ZM207.849 141.931V148.69H201.05V141.931H207.849ZM173.852 148.69V155.448H167.053V148.69H173.852ZM167.053 148.69V155.448H160.253V148.69H167.053ZM221.448 87.8621V94.6207H214.648V87.8621H221.448ZM221.448 94.6207V101.379H214.648V94.6207H221.448ZM228.247 94.6207V101.379H221.448V94.6207H228.247ZM235.047 94.6207V101.379H228.247V94.6207H235.047ZM241.846 94.6207V101.379H235.047V94.6207H241.846ZM248.645 94.6207V101.379H241.846V94.6207H248.645ZM248.645 87.8621V94.6207H241.846V87.8621H248.645ZM241.846 87.8621V94.6207H235.047V87.8621H241.846ZM235.047 87.8621V94.6207H228.247V87.8621H235.047ZM228.247 87.8621V94.6207H221.448V87.8621H228.247ZM228.247 101.379V108.138H221.448V101.379H228.247ZM235.047 101.379V108.138H228.247V101.379H235.047ZM235.047 108.138V114.897H228.247V108.138H235.047ZM241.846 108.138V114.897H235.047V108.138H241.846ZM241.846 101.379V108.138H235.047V101.379H241.846ZM248.645 101.379V108.138H241.846V101.379H248.645ZM248.645 108.138V114.897H241.846V108.138H248.645ZM248.645 114.897V121.655H241.846V114.897H248.645ZM241.846 114.897V121.655H235.047V114.897H241.846ZM235.047 114.897V121.655H228.247V114.897H235.047ZM228.247 114.897V121.655H221.448V114.897H228.247ZM228.247 108.138V114.897H221.448V108.138H228.247ZM221.448 108.138V114.897H214.648V108.138H221.448ZM221.448 101.379V108.138H214.648V101.379H221.448ZM221.448 114.897V121.655H214.648V114.897H221.448Z" fill="#2FFF00"/>
<path d="M337.157 60.8276V67.5862H330.358V60.8276H337.157ZM337.157 54.069V60.8276H330.358V54.069H337.157ZM337.157 47.3103V54.069H330.358V47.3103H337.157ZM330.358 47.3103V54.069H323.558V47.3103H330.358ZM330.358 40.5517V47.3103H323.558V40.5517H330.358ZM330.358 54.069V60.8276H323.558V54.069H330.358ZM323.558 54.069V60.8276H316.759V54.069H323.558ZM323.558 60.8276V67.5862H316.759V60.8276H323.558ZM330.358 60.8276V67.5862H323.558V60.8276H330.358ZM316.759 60.8276V67.5862H309.959V60.8276H316.759ZM316.759 54.069V60.8276H309.959V54.069H316.759ZM316.759 47.3103V54.069H309.959V47.3103H316.759ZM316.759 40.5517V47.3103H309.959V40.5517H316.759ZM323.558 40.5517V47.3103H316.759V40.5517H323.558ZM323.558 47.3103V54.069H316.759V47.3103H323.558ZM309.959 40.5517V47.3103H303.16V40.5517H309.959ZM303.16 40.5517V47.3103H296.361V40.5517H303.16ZM296.361 40.5517V47.3103H289.561V40.5517H296.361ZM296.361 47.3103V54.069H289.561V47.3103H296.361ZM296.361 54.069V60.8276H289.561V54.069H296.361ZM296.361 60.8276V67.5862H289.561V60.8276H296.361ZM303.16 60.8276V67.5862H296.361V60.8276H303.16ZM309.959 60.8276V67.5862H303.16V60.8276H309.959ZM309.959 54.069V60.8276H303.16V54.069H309.959ZM309.959 47.3103V54.069H303.16V47.3103H309.959ZM303.16 47.3103V54.069H296.361V47.3103H303.16ZM303.16 54.069V60.8276H296.361V54.069H303.16ZM289.561 54.069V60.8276H282.762V54.069H289.561ZM289.561 47.3103V54.069H282.762V47.3103H289.561ZM282.762 47.3103V54.069H275.962V47.3103H282.762ZM282.762 54.069V60.8276H275.962V54.069H282.762ZM275.962 54.069V60.8276H269.163V54.069H275.962ZM275.962 60.8276V67.5862H269.163V60.8276H275.962ZM275.962 67.5862V74.3448H269.163V67.5862H275.962ZM282.762 67.5862V74.3448H275.962V67.5862H282.762ZM282.762 60.8276V67.5862H275.962V60.8276H282.762ZM289.561 60.8276V67.5862H282.762V60.8276H289.561ZM289.561 67.5862V74.3448H282.762V67.5862H289.561ZM296.361 67.5862V74.3448H289.561V67.5862H296.361ZM303.16 67.5862V74.3448H296.361V67.5862H303.16ZM269.163 67.5862V74.3448H262.364V67.5862H269.163ZM269.163 74.3448V81.1035H262.364V74.3448H269.163ZM269.163 81.1035V87.8621H262.364V81.1035H269.163ZM269.163 87.8621V94.6207H262.364V87.8621H269.163ZM269.163 94.6207V101.379H262.364V94.6207H269.163ZM269.163 101.379V108.138H262.364V101.379H269.163ZM269.163 108.138V114.897H262.364V108.138H269.163ZM269.163 114.897V121.655H262.364V114.897H269.163ZM269.163 121.655V128.414H262.364V121.655H269.163ZM269.163 128.414V135.172H262.364V128.414H269.163ZM275.962 128.414V135.172H269.163V128.414H275.962ZM275.962 135.172V141.931H269.163V135.172H275.962ZM269.163 135.172V141.931H262.364V135.172H269.163ZM282.762 135.172V141.931H275.962V135.172H282.762ZM289.561 135.172V141.931H282.762V135.172H289.561ZM296.361 135.172V141.931H289.561V135.172H296.361ZM303.16 135.172V141.931H296.361V135.172H303.16ZM296.361 128.414V135.172H289.561V128.414H296.361ZM296.361 121.655V128.414H289.561V121.655H296.361ZM296.361 114.897V121.655H289.561V114.897H296.361ZM296.361 108.138V114.897H289.561V108.138H296.361ZM296.361 101.379V108.138H289.561V101.379H296.361ZM296.361 94.6207V101.379H289.561V94.6207H296.361ZM296.361 87.8621V94.6207H289.561V87.8621H296.361ZM296.361 81.1035V87.8621H289.561V81.1035H296.361ZM296.361 74.3448V81.1035H289.561V74.3448H296.361ZM289.561 74.3448V81.1035H282.762V74.3448H289.561ZM282.762 74.3448V81.1035H275.962V74.3448H282.762ZM275.962 74.3448V81.1035H269.163V74.3448H275.962ZM275.962 81.1035V87.8621H269.163V81.1035H275.962ZM275.962 87.8621V94.6207H269.163V87.8621H275.962ZM275.962 94.6207V101.379H269.163V94.6207H275.962ZM275.962 101.379V108.138H269.163V101.379H275.962ZM275.962 108.138V114.897H269.163V108.138H275.962ZM275.962 114.897V121.655H269.163V114.897H275.962ZM275.962 121.655V128.414H269.163V121.655H275.962ZM282.762 128.414V135.172H275.962V128.414H282.762ZM289.561 128.414V135.172H282.762V128.414H289.561ZM289.561 121.655V128.414H282.762V121.655H289.561ZM289.561 114.897V121.655H282.762V114.897H289.561ZM289.561 108.138V114.897H282.762V108.138H289.561ZM289.561 101.379V108.138H282.762V101.379H289.561ZM282.762 101.379V108.138H275.962V101.379H282.762ZM282.762 94.6207V101.379H275.962V94.6207H282.762ZM282.762 87.8621V94.6207H275.962V87.8621H282.762ZM282.762 81.1035V87.8621H275.962V81.1035H282.762ZM289.561 81.1035V87.8621H282.762V81.1035H289.561ZM289.561 87.8621V94.6207H282.762V87.8621H289.561ZM289.561 94.6207V101.379H282.762V94.6207H289.561ZM282.762 114.897V121.655H275.962V114.897H282.762ZM282.762 121.655V128.414H275.962V121.655H282.762ZM282.762 108.138V114.897H275.962V108.138H282.762ZM337.157 141.931V148.69H330.358V141.931H337.157ZM330.358 162.207V168.966H323.558V162.207H330.358ZM323.558 162.207V168.966H316.759V162.207H323.558ZM316.759 162.207V168.966H309.959V162.207H316.759ZM309.959 162.207V168.966H303.16V162.207H309.959ZM303.16 162.207V168.966H296.361V162.207H303.16ZM296.361 162.207V168.966H289.561V162.207H296.361ZM303.16 155.448V162.207H296.361V155.448H303.16ZM309.959 155.448V162.207H303.16V155.448H309.959ZM316.759 155.448V162.207H309.959V155.448H316.759ZM323.558 155.448V162.207H316.759V155.448H323.558ZM330.358 155.448V162.207H323.558V155.448H330.358ZM337.157 155.448V162.207H330.358V155.448H337.157ZM337.157 148.69V155.448H330.358V148.69H337.157ZM330.358 148.69V155.448H323.558V148.69H330.358ZM323.558 148.69V155.448H316.759V148.69H323.558ZM316.759 148.69V155.448H309.959V148.69H316.759ZM309.959 148.69V155.448H303.16V148.69H309.959ZM303.16 148.69V155.448H296.361V148.69H303.16ZM296.361 155.448V162.207H289.561V155.448H296.361ZM289.561 155.448V162.207H282.762V155.448H289.561ZM282.762 155.448V162.207H275.962V155.448H282.762ZM282.762 148.69V155.448H275.962V148.69H282.762ZM275.962 148.69V155.448H269.163V148.69H275.962ZM275.962 141.931V148.69H269.163V141.931H275.962ZM282.762 141.931V148.69H275.962V141.931H282.762ZM289.561 141.931V148.69H282.762V141.931H289.561ZM296.361 141.931V148.69H289.561V141.931H296.361ZM303.16 141.931V148.69H296.361V141.931H303.16ZM309.959 141.931V148.69H303.16V141.931H309.959ZM316.759 141.931V148.69H309.959V141.931H316.759ZM323.558 141.931V148.69H316.759V141.931H323.558ZM330.358 141.931V148.69H323.558V141.931H330.358ZM296.361 148.69V155.448H289.561V148.69H296.361ZM289.561 148.69V155.448H282.762V148.69H289.561ZM343.956 148.69V155.448H337.157V148.69H343.956ZM343.956 141.931V148.69H337.157V141.931H343.956ZM343.956 135.172V141.931H337.157V135.172H343.956ZM343.956 128.414V135.172H337.157V128.414H343.956ZM343.956 121.655V128.414H337.157V121.655H343.956ZM343.956 114.897V121.655H337.157V114.897H343.956ZM343.956 108.138V114.897H337.157V108.138H343.956ZM343.956 101.379V108.138H337.157V101.379H343.956ZM343.956 94.6207V101.379H337.157V94.6207H343.956ZM343.956 87.8621V94.6207H337.157V87.8621H343.956ZM343.956 81.1035V87.8621H337.157V81.1035H343.956ZM343.956 74.3448V81.1035H337.157V74.3448H343.956ZM343.956 67.5862V74.3448H337.157V67.5862H343.956ZM350.756 67.5862V74.3448H343.956V67.5862H350.756ZM350.756 74.3448V81.1035H343.956V74.3448H350.756ZM350.756 81.1035V87.8621H343.956V81.1035H350.756ZM350.756 87.8621V94.6207H343.956V87.8621H350.756ZM350.756 94.6207V101.379H343.956V94.6207H350.756ZM350.756 101.379V108.138H343.956V101.379H350.756ZM350.756 108.138V114.897H343.956V108.138H350.756ZM357.555 114.897V121.655H350.756V114.897H357.555ZM357.555 121.655V128.414H350.756V121.655H357.555ZM357.555 128.414V135.172H350.756V128.414H357.555ZM357.555 135.172V141.931H350.756V135.172H357.555ZM357.555 141.931V148.69H350.756V141.931H357.555ZM357.555 148.69V155.448H350.756V148.69H357.555ZM357.555 155.448V162.207H350.756V155.448H357.555ZM357.555 162.207V168.966H350.756V162.207H357.555ZM364.355 162.207V168.966H357.555V162.207H364.355ZM371.154 162.207V168.966H364.355V162.207H371.154ZM371.154 155.448V162.207H364.355V155.448H371.154ZM371.154 148.69V155.448H364.355V148.69H371.154ZM371.154 141.931V148.69H364.355V141.931H371.154ZM371.154 135.172V141.931H364.355V135.172H371.154ZM371.154 128.414V135.172H364.355V128.414H371.154ZM371.154 121.655V128.414H364.355V121.655H371.154ZM371.154 114.897V121.655H364.355V114.897H371.154ZM364.355 114.897V121.655H357.555V114.897H364.355ZM364.355 108.138V114.897H357.555V108.138H364.355ZM364.355 121.655V128.414H357.555V121.655H364.355ZM364.355 128.414V135.172H357.555V128.414H364.355ZM364.355 135.172V141.931H357.555V135.172H364.355ZM364.355 141.931V148.69H357.555V141.931H364.355ZM364.355 148.69V155.448H357.555V148.69H364.355ZM364.355 155.448V162.207H357.555V155.448H364.355ZM350.756 148.69V155.448H343.956V148.69H350.756ZM350.756 141.931V148.69H343.956V141.931H350.756ZM350.756 135.172V141.931H343.956V135.172H350.756ZM350.756 128.414V135.172H343.956V128.414H350.756ZM350.756 121.655V128.414H343.956V121.655H350.756ZM350.756 114.897V121.655H343.956V114.897H350.756ZM343.956 0V6.75863H337.157V0H343.956ZM343.956 6.75863V13.5172H337.157V6.75863H343.956ZM343.956 13.5172V20.2759H337.157V13.5172H343.956ZM343.956 20.2759V27.0345H337.157V20.2759H343.956ZM343.956 27.0345V33.7931H337.157V27.0345H343.956ZM343.956 33.7931V40.5517H337.157V33.7931H343.956ZM343.956 47.3103V54.069H337.157V47.3103H343.956ZM343.956 60.8276V67.5862H337.157V60.8276H343.956ZM364.355 0V6.75863H357.555V0H364.355ZM364.355 6.75863V13.5172H357.555V6.75863H364.355ZM364.355 13.5172V20.2759H357.555V13.5172H364.355ZM364.355 20.2759V27.0345H357.555V20.2759H364.355ZM364.355 27.0345V33.7931H357.555V27.0345H364.355ZM364.355 33.7931V40.5517H357.555V33.7931H364.355ZM364.355 47.3103V54.069H357.555V47.3103H364.355ZM364.355 54.069V60.8276H357.555V54.069H364.355ZM364.355 60.8276V67.5862H357.555V60.8276H364.355ZM364.355 74.3448V81.1035H357.555V74.3448H364.355ZM364.355 81.1035V87.8621H357.555V81.1035H364.355ZM364.355 87.8621V94.6207H357.555V87.8621H364.355ZM371.154 94.6207V101.379H364.355V94.6207H371.154ZM371.154 101.379V108.138H364.355V101.379H371.154ZM371.154 108.138V114.897H364.355V108.138H371.154ZM371.154 87.8621V94.6207H364.355V87.8621H371.154ZM371.154 81.1035V87.8621H364.355V81.1035H371.154ZM371.154 67.5862V74.3448H364.355V67.5862H371.154ZM371.154 60.8276V67.5862H364.355V60.8276H371.154ZM371.154 54.069V60.8276H364.355V54.069H371.154ZM371.154 47.3103V54.069H364.355V47.3103H371.154ZM371.154 40.5517V47.3103H364.355V40.5517H371.154ZM371.154 33.7931V40.5517H364.355V33.7931H371.154ZM371.154 27.0345V33.7931H364.355V27.0345H371.154ZM364.355 40.5517V47.3103H357.555V40.5517H364.355ZM371.154 20.2759V27.0345H364.355V20.2759H371.154ZM371.154 13.5172V20.2759H364.355V13.5172H371.154ZM371.154 6.75863V13.5172H364.355V6.75863H371.154ZM371.154 0V6.75863H364.355V0H371.154ZM357.555 0V6.75863H350.756V0H357.555ZM350.756 0V6.75863H343.956V0H350.756ZM350.756 6.75863V13.5172H343.956V6.75863H350.756ZM357.555 6.75863V13.5172H350.756V6.75863H357.555ZM357.555 13.5172V20.2759H350.756V13.5172H357.555ZM357.555 20.2759V27.0345H350.756V20.2759H357.555ZM357.555 27.0345V33.7931H350.756V27.0345H357.555ZM357.555 33.7931V40.5517H350.756V33.7931H357.555ZM357.555 40.5517V47.3103H350.756V40.5517H357.555ZM357.555 47.3103V54.069H350.756V47.3103H357.555ZM350.756 54.069V60.8276H343.956V54.069H350.756ZM350.756 60.8276V67.5862H343.956V60.8276H350.756ZM350.756 47.3103V54.069H343.956V47.3103H350.756ZM350.756 40.5517V47.3103H343.956V40.5517H350.756ZM350.756 33.7931V40.5517H343.956V33.7931H350.756ZM350.756 27.0345V33.7931H343.956V27.0345H350.756ZM350.756 20.2759V27.0345H343.956V20.2759H350.756ZM350.756 13.5172V20.2759H343.956V13.5172H350.756ZM357.555 60.8276V67.5862H350.756V60.8276H357.555ZM357.555 74.3448V81.1035H350.756V74.3448H357.555ZM357.555 81.1035V87.8621H350.756V81.1035H357.555ZM357.555 87.8621V94.6207H350.756V87.8621H357.555ZM357.555 94.6207V101.379H350.756V94.6207H357.555ZM357.555 101.379V108.138H350.756V101.379H357.555ZM357.555 108.138V114.897H350.756V108.138H357.555ZM364.355 101.379V108.138H357.555V101.379H364.355ZM364.355 94.6207V101.379H357.555V94.6207H364.355ZM343.956 40.5517V47.3103H337.157V40.5517H343.956ZM371.154 74.3448V81.1035H364.355V74.3448H371.154ZM343.956 54.069V60.8276H337.157V54.069H343.956ZM357.555 54.069V60.8276H350.756V54.069H357.555ZM357.555 67.5862V74.3448H350.756V67.5862H357.555ZM364.355 67.5862V74.3448H357.555V67.5862H364.355ZM343.956 155.448V162.207H337.157V155.448H343.956ZM350.756 155.448V162.207H343.956V155.448H350.756ZM350.756 162.207V168.966H343.956V162.207H350.756ZM337.157 40.5517V47.3103H330.358V40.5517H337.157ZM337.157 135.172V141.931H330.358V135.172H337.157ZM343.956 162.207V168.966H337.157V162.207H343.956Z" fill="#2FFF00"/>
<path d="M473.271 81.1035V87.8621H466.472V81.1035H473.271ZM480.07 81.1035V87.8621H473.271V81.1035H480.07ZM486.87 81.1035V87.8621H480.07V81.1035H486.87ZM493.669 81.1035V87.8621H486.87V81.1035H493.669ZM500.469 81.1035V87.8621H493.669V81.1035H500.469ZM500.469 74.3448V81.1035H493.669V74.3448H500.469ZM500.469 67.5862V74.3448H493.669V67.5862H500.469ZM493.669 67.5862V74.3448H486.87V67.5862H493.669ZM486.87 67.5862V74.3448H480.07V67.5862H486.87ZM480.07 67.5862V74.3448H473.271V67.5862H480.07ZM480.07 74.3448V81.1035H473.271V74.3448H480.07ZM473.271 74.3448V81.1035H466.472V74.3448H473.271ZM486.87 74.3448V81.1035H480.07V74.3448H486.87ZM493.669 74.3448V81.1035H486.87V74.3448H493.669ZM473.271 67.5862V74.3448H466.472V67.5862H473.271ZM466.472 67.5862V74.3448H459.672V67.5862H466.472ZM466.472 60.8276V67.5862H459.672V60.8276H466.472ZM473.271 60.8276V67.5862H466.472V60.8276H473.271ZM480.07 60.8276V67.5862H473.271V60.8276H480.07ZM486.87 60.8276V67.5862H480.07V60.8276H486.87ZM493.669 60.8276V67.5862H486.87V60.8276H493.669ZM493.669 54.069V60.8276H486.87V54.069H493.669ZM486.87 54.069V60.8276H480.07V54.069H486.87ZM480.07 54.069V60.8276H473.271V54.069H480.07ZM473.271 54.069V60.8276H466.472V54.069H473.271ZM466.472 54.069V60.8276H459.672V54.069H466.472ZM480.07 47.3103V54.069H473.271V47.3103H480.07ZM486.87 47.3103V54.069H480.07V47.3103H486.87ZM473.271 47.3103V54.069H466.472V47.3103H473.271ZM473.271 40.5517V47.3103H466.472V40.5517H473.271ZM466.472 40.5517V47.3103H459.672V40.5517H466.472ZM466.472 47.3103V54.069H459.672V47.3103H466.472ZM459.672 47.3103V54.069H452.873V47.3103H459.672ZM459.672 40.5517V47.3103H452.873V40.5517H459.672ZM459.672 54.069V60.8276H452.873V54.069H459.672ZM452.873 54.069V60.8276H446.073V54.069H452.873ZM452.873 60.8276V67.5862H446.073V60.8276H452.873ZM459.672 60.8276V67.5862H452.873V60.8276H459.672ZM446.073 60.8276V67.5862H439.274V60.8276H446.073ZM446.073 54.069V60.8276H439.274V54.069H446.073ZM446.073 47.3103V54.069H439.274V47.3103H446.073ZM446.073 40.5517V47.3103H439.274V40.5517H446.073ZM452.873 40.5517V47.3103H446.073V40.5517H452.873ZM452.873 47.3103V54.069H446.073V47.3103H452.873ZM439.274 40.5517V47.3103H432.475V40.5517H439.274ZM432.475 40.5517V47.3103H425.675V40.5517H432.475ZM425.675 40.5517V47.3103H418.876V40.5517H425.675ZM425.675 47.3103V54.069H418.876V47.3103H425.675ZM425.675 54.069V60.8276H418.876V54.069H425.675ZM425.675 60.8276V67.5862H418.876V60.8276H425.675ZM432.475 60.8276V67.5862H425.675V60.8276H432.475ZM439.274 60.8276V67.5862H432.475V60.8276H439.274ZM439.274 54.069V60.8276H432.475V54.069H439.274ZM439.274 47.3103V54.069H432.475V47.3103H439.274ZM432.475 47.3103V54.069H425.675V47.3103H432.475ZM432.475 54.069V60.8276H425.675V54.069H432.475ZM418.876 54.069V60.8276H412.077V54.069H418.876ZM418.876 47.3103V54.069H412.077V47.3103H418.876ZM412.077 47.3103V54.069H405.277V47.3103H412.077ZM412.077 54.069V60.8276H405.277V54.069H412.077ZM405.277 54.069V60.8276H398.478V54.069H405.277ZM405.277 60.8276V67.5862H398.478V60.8276H405.277ZM405.277 67.5862V74.3448H398.478V67.5862H405.277ZM412.077 67.5862V74.3448H405.277V67.5862H412.077ZM412.077 60.8276V67.5862H405.277V60.8276H412.077ZM418.876 60.8276V67.5862H412.077V60.8276H418.876ZM418.876 67.5862V74.3448H412.077V67.5862H418.876ZM425.675 67.5862V74.3448H418.876V67.5862H425.675ZM432.475 67.5862V74.3448H425.675V67.5862H432.475ZM398.478 67.5862V74.3448H391.678V67.5862H398.478ZM398.478 74.3448V81.1035H391.678V74.3448H398.478ZM398.478 81.1035V87.8621H391.678V81.1035H398.478ZM398.478 87.8621V94.6207H391.678V87.8621H398.478ZM398.478 94.6207V101.379H391.678V94.6207H398.478ZM398.478 101.379V108.138H391.678V101.379H398.478ZM398.478 108.138V114.897H391.678V108.138H398.478ZM398.478 114.897V121.655H391.678V114.897H398.478ZM398.478 121.655V128.414H391.678V121.655H398.478ZM398.478 128.414V135.172H391.678V128.414H398.478ZM405.277 128.414V135.172H398.478V128.414H405.277ZM405.277 135.172V141.931H398.478V135.172H405.277ZM398.478 135.172V141.931H391.678V135.172H398.478ZM412.077 135.172V141.931H405.277V135.172H412.077ZM418.876 135.172V141.931H412.077V135.172H418.876ZM425.675 135.172V141.931H418.876V135.172H425.675ZM432.475 135.172V141.931H425.675V135.172H432.475ZM425.675 128.414V135.172H418.876V128.414H425.675ZM425.675 121.655V128.414H418.876V121.655H425.675ZM425.675 114.897V121.655H418.876V114.897H425.675ZM425.675 108.138V114.897H418.876V108.138H425.675ZM425.675 101.379V108.138H418.876V101.379H425.675ZM425.675 94.6207V101.379H418.876V94.6207H425.675ZM425.675 87.8621V94.6207H418.876V87.8621H425.675ZM425.675 81.1035V87.8621H418.876V81.1035H425.675ZM425.675 74.3448V81.1035H418.876V74.3448H425.675ZM418.876 74.3448V81.1035H412.077V74.3448H418.876ZM412.077 74.3448V81.1035H405.277V74.3448H412.077ZM405.277 74.3448V81.1035H398.478V74.3448H405.277ZM405.277 81.1035V87.8621H398.478V81.1035H405.277ZM405.277 87.8621V94.6207H398.478V87.8621H405.277ZM405.277 94.6207V101.379H398.478V94.6207H405.277ZM405.277 101.379V108.138H398.478V101.379H405.277ZM405.277 108.138V114.897H398.478V108.138H405.277ZM405.277 114.897V121.655H398.478V114.897H405.277ZM405.277 121.655V128.414H398.478V121.655H405.277ZM412.077 128.414V135.172H405.277V128.414H412.077ZM418.876 128.414V135.172H412.077V128.414H418.876ZM418.876 121.655V128.414H412.077V121.655H418.876ZM418.876 114.897V121.655H412.077V114.897H418.876ZM418.876 108.138V114.897H412.077V108.138H418.876ZM418.876 101.379V108.138H412.077V101.379H418.876ZM412.077 101.379V108.138H405.277V101.379H412.077ZM412.077 94.6207V101.379H405.277V94.6207H412.077ZM412.077 87.8621V94.6207H405.277V87.8621H412.077ZM412.077 81.1035V87.8621H405.277V81.1035H412.077ZM418.876 81.1035V87.8621H412.077V81.1035H418.876ZM418.876 87.8621V94.6207H412.077V87.8621H418.876ZM418.876 94.6207V101.379H412.077V94.6207H418.876ZM412.077 114.897V121.655H405.277V114.897H412.077ZM412.077 121.655V128.414H405.277V121.655H412.077ZM412.077 108.138V114.897H405.277V108.138H412.077ZM473.271 128.414V135.172H466.472V128.414H473.271ZM480.07 128.414V135.172H473.271V128.414H480.07ZM486.87 128.414V135.172H480.07V128.414H486.87ZM493.669 128.414V135.172H486.87V128.414H493.669ZM500.469 128.414V135.172H493.669V128.414H500.469ZM500.469 135.172V141.931H493.669V135.172H500.469ZM493.669 135.172V141.931H486.87V135.172H493.669ZM486.87 135.172V141.931H480.07V135.172H486.87ZM480.07 135.172V141.931H473.271V135.172H480.07ZM473.271 135.172V141.931H466.472V135.172H473.271ZM466.472 135.172V141.931H459.672V135.172H466.472ZM466.472 141.931V148.69H459.672V141.931H466.472ZM473.271 141.931V148.69H466.472V141.931H473.271ZM480.07 141.931V148.69H473.271V141.931H480.07ZM486.87 141.931V148.69H480.07V141.931H486.87ZM486.87 148.69V155.448H480.07V148.69H486.87ZM493.669 148.69V155.448H486.87V148.69H493.669ZM493.669 141.931V148.69H486.87V141.931H493.669ZM486.87 155.448V162.207H480.07V155.448H486.87ZM480.07 155.448V162.207H473.271V155.448H480.07ZM480.07 148.69V155.448H473.271V148.69H480.07ZM473.271 148.69V155.448H466.472V148.69H473.271ZM473.271 155.448V162.207H466.472V155.448H473.271ZM473.271 162.207V168.966H466.472V162.207H473.271ZM466.472 162.207V168.966H459.672V162.207H466.472ZM459.672 162.207V168.966H452.873V162.207H459.672ZM452.873 162.207V168.966H446.073V162.207H452.873ZM446.073 162.207V168.966H439.274V162.207H446.073ZM439.274 162.207V168.966H432.475V162.207H439.274ZM432.475 162.207V168.966H425.675V162.207H432.475ZM425.675 162.207V168.966H418.876V162.207H425.675ZM432.475 155.448V162.207H425.675V155.448H432.475ZM439.274 155.448V162.207H432.475V155.448H439.274ZM446.073 155.448V162.207H439.274V155.448H446.073ZM452.873 155.448V162.207H446.073V155.448H452.873ZM459.672 155.448V162.207H452.873V155.448H459.672ZM466.472 155.448V162.207H459.672V155.448H466.472ZM466.472 148.69V155.448H459.672V148.69H466.472ZM459.672 148.69V155.448H452.873V148.69H459.672ZM452.873 148.69V155.448H446.073V148.69H452.873ZM446.073 148.69V155.448H439.274V148.69H446.073ZM439.274 148.69V155.448H432.475V148.69H439.274ZM432.475 148.69V155.448H425.675V148.69H432.475ZM425.675 155.448V162.207H418.876V155.448H425.675ZM418.876 155.448V162.207H412.077V155.448H418.876ZM412.077 155.448V162.207H405.277V155.448H412.077ZM412.077 148.69V155.448H405.277V148.69H412.077ZM405.277 148.69V155.448H398.478V148.69H405.277ZM405.277 141.931V148.69H398.478V141.931H405.277ZM412.077 141.931V148.69H405.277V141.931H412.077ZM418.876 141.931V148.69H412.077V141.931H418.876ZM425.675 141.931V148.69H418.876V141.931H425.675ZM432.475 141.931V148.69H425.675V141.931H432.475ZM439.274 141.931V148.69H432.475V141.931H439.274ZM446.073 141.931V148.69H439.274V141.931H446.073ZM452.873 141.931V148.69H446.073V141.931H452.873ZM459.672 141.931V148.69H452.873V141.931H459.672ZM425.675 148.69V155.448H418.876V148.69H425.675ZM418.876 148.69V155.448H412.077V148.69H418.876ZM500.469 87.8621V94.6207H493.669V87.8621H500.469ZM493.669 87.8621V94.6207H486.87V87.8621H493.669ZM486.87 87.8621V94.6207H480.07V87.8621H486.87ZM480.07 87.8621V94.6207H473.271V87.8621H480.07ZM473.271 87.8621V94.6207H466.472V87.8621H473.271ZM500.469 94.6207V101.379H493.669V94.6207H500.469ZM486.87 94.6207V101.379H480.07V94.6207H486.87ZM480.07 94.6207V101.379H473.271V94.6207H480.07ZM466.472 94.6207V101.379H459.672V94.6207H466.472ZM459.672 94.6207V101.379H452.873V94.6207H459.672ZM452.873 94.6207V101.379H446.073V94.6207H452.873ZM446.073 94.6207V101.379H439.274V94.6207H446.073ZM439.274 94.6207V101.379H432.475V94.6207H439.274ZM432.475 94.6207V101.379H425.675V94.6207H432.475ZM473.271 94.6207V101.379H466.472V94.6207H473.271ZM493.669 94.6207V101.379H486.87V94.6207H493.669ZM500.469 101.379V108.138H493.669V101.379H500.469ZM493.669 101.379V108.138H486.87V101.379H493.669ZM486.87 101.379V108.138H480.07V101.379H486.87ZM480.07 101.379V108.138H473.271V101.379H480.07ZM473.271 101.379V108.138H466.472V101.379H473.271ZM466.472 101.379V108.138H459.672V101.379H466.472ZM459.672 101.379V108.138H452.873V101.379H459.672ZM452.873 101.379V108.138H446.073V101.379H452.873ZM446.073 101.379V108.138H439.274V101.379H446.073ZM439.274 101.379V108.138H432.475V101.379H439.274ZM432.475 101.379V108.138H425.675V101.379H432.475ZM432.475 108.138V114.897H425.675V108.138H432.475ZM439.274 108.138V114.897H432.475V108.138H439.274ZM446.073 108.138V114.897H439.274V108.138H446.073ZM459.672 108.138V114.897H452.873V108.138H459.672ZM466.472 108.138V114.897H459.672V108.138H466.472ZM473.271 108.138V114.897H466.472V108.138H473.271ZM480.07 108.138V114.897H473.271V108.138H480.07ZM486.87 108.138V114.897H480.07V108.138H486.87ZM493.669 108.138V114.897H486.87V108.138H493.669ZM500.469 108.138V114.897H493.669V108.138H500.469ZM452.873 108.138V114.897H446.073V108.138H452.873Z" fill="#2FFF00"/>
<path d="M527.786 135.172V141.931H520.986V135.172H527.786ZM527.786 128.414V135.172H520.986V128.414H527.786ZM527.786 121.655V128.414H520.986V121.655H527.786ZM527.786 114.897V121.655H520.986V114.897H527.786ZM527.786 108.138V114.897H520.986V108.138H527.786ZM527.786 101.379V108.138H520.986V101.379H527.786ZM527.786 94.6207V101.379H520.986V94.6207H527.786ZM527.786 87.8621V94.6207H520.986V87.8621H527.786ZM527.786 81.1035V87.8621H520.986V81.1035H527.786ZM527.786 74.3448V81.1035H520.986V74.3448H527.786ZM527.786 67.5862V74.3448H520.986V67.5862H527.786ZM534.585 67.5862V74.3448H527.786V67.5862H534.585ZM534.585 74.3448V81.1035H527.786V74.3448H534.585ZM534.585 81.1035V87.8621H527.786V81.1035H534.585ZM534.585 87.8621V94.6207H527.786V87.8621H534.585ZM534.585 94.6207V101.379H527.786V94.6207H534.585ZM534.585 101.379V108.138H527.786V101.379H534.585ZM534.585 108.138V114.897H527.786V108.138H534.585ZM541.385 114.897V121.655H534.585V114.897H541.385ZM541.385 121.655V128.414H534.585V121.655H541.385ZM541.385 128.414V135.172H534.585V128.414H541.385ZM541.385 135.172V141.931H534.585V135.172H541.385ZM541.385 141.931V148.69H534.585V141.931H541.385ZM541.385 148.69V155.448H534.585V148.69H541.385ZM541.385 155.448V162.207H534.585V155.448H541.385ZM554.983 162.207V168.966H548.184V162.207H554.983ZM554.983 155.448V162.207H548.184V155.448H554.983ZM554.983 148.69V155.448H548.184V148.69H554.983ZM554.983 141.931V148.69H548.184V141.931H554.983ZM554.983 135.172V141.931H548.184V135.172H554.983ZM554.983 128.414V135.172H548.184V128.414H554.983ZM554.983 121.655V128.414H548.184V121.655H554.983ZM554.983 114.897V121.655H548.184V114.897H554.983ZM548.184 114.897V121.655H541.385V114.897H548.184ZM548.184 108.138V114.897H541.385V108.138H548.184ZM548.184 121.655V128.414H541.385V121.655H548.184ZM548.184 128.414V135.172H541.385V128.414H548.184ZM548.184 135.172V141.931H541.385V135.172H548.184ZM548.184 141.931V148.69H541.385V141.931H548.184ZM548.184 148.69V155.448H541.385V148.69H548.184ZM548.184 155.448V162.207H541.385V155.448H548.184ZM534.585 148.69V155.448H527.786V148.69H534.585ZM534.585 141.931V148.69H527.786V141.931H534.585ZM534.585 135.172V141.931H527.786V135.172H534.585ZM534.585 128.414V135.172H527.786V128.414H534.585ZM534.585 121.655V128.414H527.786V121.655H534.585ZM534.585 114.897V121.655H527.786V114.897H534.585ZM527.786 60.8276V67.5862H520.986V60.8276H527.786ZM548.184 60.8276V67.5862H541.385V60.8276H548.184ZM548.184 67.5862V74.3448H541.385V67.5862H548.184ZM548.184 74.3448V81.1035H541.385V74.3448H548.184ZM548.184 81.1035V87.8621H541.385V81.1035H548.184ZM548.184 87.8621V94.6207H541.385V87.8621H548.184ZM554.983 94.6207V101.379H548.184V94.6207H554.983ZM554.983 101.379V108.138H548.184V101.379H554.983ZM554.983 108.138V114.897H548.184V108.138H554.983ZM554.983 87.8621V94.6207H548.184V87.8621H554.983ZM554.983 81.1035V87.8621H548.184V81.1035H554.983ZM554.983 74.3448V81.1035H548.184V74.3448H554.983ZM554.983 67.5862V74.3448H548.184V67.5862H554.983ZM554.983 60.8276V67.5862H548.184V60.8276H554.983ZM534.585 60.8276V67.5862H527.786V60.8276H534.585ZM541.385 60.8276V67.5862H534.585V60.8276H541.385ZM541.385 67.5862V74.3448H534.585V67.5862H541.385ZM541.385 74.3448V81.1035H534.585V74.3448H541.385ZM541.385 81.1035V87.8621H534.585V81.1035H541.385ZM541.385 87.8621V94.6207H534.585V87.8621H541.385ZM541.385 94.6207V101.379H534.585V94.6207H541.385ZM541.385 101.379V108.138H534.585V101.379H541.385ZM541.385 108.138V114.897H534.585V108.138H541.385ZM548.184 101.379V108.138H541.385V101.379H548.184ZM548.184 94.6207V101.379H541.385V94.6207H548.184ZM609.378 148.69V155.448H602.579V148.69H609.378ZM609.378 141.931V148.69H602.579V141.931H609.378ZM609.378 135.172V141.931H602.579V135.172H609.378ZM609.378 128.414V135.172H602.579V128.414H609.378ZM609.378 121.655V128.414H602.579V121.655H609.378ZM609.378 114.897V121.655H602.579V114.897H609.378ZM609.378 108.138V114.897H602.579V108.138H609.378ZM609.378 101.379V108.138H602.579V101.379H609.378ZM609.378 94.6207V101.379H602.579V94.6207H609.378ZM609.378 87.8621V94.6207H602.579V87.8621H609.378ZM609.378 81.1035V87.8621H602.579V81.1035H609.378ZM609.378 74.3448V81.1035H602.579V74.3448H609.378ZM609.378 67.5862V74.3448H602.579V67.5862H609.378ZM616.178 67.5862V74.3448H609.378V67.5862H616.178ZM616.178 74.3448V81.1035H609.378V74.3448H616.178ZM616.178 81.1035V87.8621H609.378V81.1035H616.178ZM616.178 87.8621V94.6207H609.378V87.8621H616.178ZM616.178 94.6207V101.379H609.378V94.6207H616.178ZM616.178 101.379V108.138H609.378V101.379H616.178ZM616.178 108.138V114.897H609.378V108.138H616.178ZM622.977 114.897V121.655H616.178V114.897H622.977ZM622.977 121.655V128.414H616.178V121.655H622.977ZM622.977 128.414V135.172H616.178V128.414H622.977ZM622.977 135.172V141.931H616.178V135.172H622.977ZM622.977 141.931V148.69H616.178V141.931H622.977ZM622.977 148.69V155.448H616.178V148.69H622.977ZM636.576 128.414V135.172H629.777V128.414H636.576ZM636.576 121.655V128.414H629.777V121.655H636.576ZM636.576 114.897V121.655H629.777V114.897H636.576ZM629.777 114.897V121.655H622.977V114.897H629.777ZM629.777 108.138V114.897H622.977V108.138H629.777ZM629.777 121.655V128.414H622.977V121.655H629.777ZM629.777 128.414V135.172H622.977V128.414H629.777ZM629.777 135.172V141.931H622.977V135.172H629.777ZM629.777 141.931V148.69H622.977V141.931H629.777ZM616.178 148.69V155.448H609.378V148.69H616.178ZM616.178 141.931V148.69H609.378V141.931H616.178ZM616.178 135.172V141.931H609.378V135.172H616.178ZM616.178 128.414V135.172H609.378V128.414H616.178ZM616.178 121.655V128.414H609.378V121.655H616.178ZM616.178 114.897V121.655H609.378V114.897H616.178ZM609.378 60.8276V67.5862H602.579V60.8276H609.378ZM629.777 60.8276V67.5862H622.977V60.8276H629.777ZM629.777 67.5862V74.3448H622.977V67.5862H629.777ZM629.777 74.3448V81.1035H622.977V74.3448H629.777ZM629.777 81.1035V87.8621H622.977V81.1035H629.777ZM629.777 87.8621V94.6207H622.977V87.8621H629.777ZM636.576 94.6207V101.379H629.777V94.6207H636.576ZM636.576 101.379V108.138H629.777V101.379H636.576ZM636.576 108.138V114.897H629.777V108.138H636.576ZM636.576 87.8621V94.6207H629.777V87.8621H636.576ZM636.576 81.1035V87.8621H629.777V81.1035H636.576ZM636.576 74.3448V81.1035H629.777V74.3448H636.576ZM636.576 67.5862V74.3448H629.777V67.5862H636.576ZM636.576 60.8276V67.5862H629.777V60.8276H636.576ZM616.178 60.8276V67.5862H609.378V60.8276H616.178ZM622.977 60.8276V67.5862H616.178V60.8276H622.977ZM622.977 67.5862V74.3448H616.178V67.5862H622.977ZM622.977 74.3448V81.1035H616.178V74.3448H622.977ZM622.977 81.1035V87.8621H616.178V81.1035H622.977ZM622.977 87.8621V94.6207H616.178V87.8621H622.977ZM622.977 94.6207V101.379H616.178V94.6207H622.977ZM622.977 101.379V108.138H616.178V101.379H622.977ZM622.977 108.138V114.897H616.178V108.138H622.977ZM629.777 101.379V108.138H622.977V101.379H629.777ZM629.777 94.6207V101.379H622.977V94.6207H629.777ZM561.783 162.207V168.966H554.983V162.207H561.783ZM568.582 162.207V168.966H561.783V162.207H568.582ZM575.381 162.207V168.966H568.582V162.207H575.381ZM588.98 162.207V168.966H582.181V162.207H588.98ZM595.78 162.207V168.966H588.98V162.207H595.78ZM602.579 162.207V168.966H595.78V162.207H602.579ZM602.579 155.448V162.207H595.78V155.448H602.579ZM595.78 155.448V162.207H588.98V155.448H595.78ZM588.98 155.448V162.207H582.181V155.448H588.98ZM575.381 155.448V162.207H568.582V155.448H575.381ZM568.582 155.448V162.207H561.783V155.448H568.582ZM561.783 155.448V162.207H554.983V155.448H561.783ZM561.783 148.69V155.448H554.983V148.69H561.783ZM568.582 148.69V155.448H561.783V148.69H568.582ZM575.381 148.69V155.448H568.582V148.69H575.381ZM588.98 148.69V155.448H582.181V148.69H588.98ZM595.78 148.69V155.448H588.98V148.69H595.78ZM602.579 148.69V155.448H595.78V148.69H602.579ZM602.579 141.931V148.69H595.78V141.931H602.579ZM595.78 141.931V148.69H588.98V141.931H595.78ZM588.98 141.931V148.69H582.181V141.931H588.98ZM575.381 141.931V148.69H568.582V141.931H575.381ZM568.582 141.931V148.69H561.783V141.931H568.582ZM561.783 141.931V148.69H554.983V141.931H561.783ZM561.783 135.172V141.931H554.983V135.172H561.783ZM602.579 135.172V141.931H595.78V135.172H602.579ZM629.777 33.7931V27.0345H636.576V33.7931H629.777ZM629.777 40.5517V33.7931H636.576V40.5517H629.777ZM629.777 47.3103V40.5517H636.576V47.3103H629.777ZM616.178 47.3103V40.5517H622.977V47.3103H616.178ZM616.178 40.5517V33.7931H622.977V40.5517H616.178ZM616.178 33.7931V27.0345H622.977V33.7931H616.178ZM616.178 27.0345V20.2759H622.977V27.0345H616.178ZM616.178 20.2759V13.5172H622.977V20.2759H616.178ZM616.178 13.5172V6.75863H622.977V13.5172H616.178ZM602.579 6.75863V0H609.378V6.75863H602.579ZM602.579 13.5172V6.75863H609.378V13.5172H602.579ZM602.579 20.2759V13.5172H609.378V20.2759H602.579ZM602.579 27.0345V20.2759H609.378V27.0345H602.579ZM602.579 33.7931V27.0345H609.378V33.7931H602.579ZM602.579 40.5517V33.7931H609.378V40.5517H602.579ZM602.579 47.3103V40.5517H609.378V47.3103H602.579ZM609.378 47.3103V40.5517H616.178V47.3103H609.378ZM609.378 40.5517V33.7931H616.178V40.5517H609.378ZM609.378 33.7931V27.0345H616.178V33.7931H609.378ZM609.378 27.0345V20.2759H616.178V27.0345H609.378ZM609.378 20.2759V13.5172H616.178V20.2759H609.378ZM609.378 13.5172V6.75863H616.178V13.5172H609.378ZM622.977 20.2759V13.5172H629.777V20.2759H622.977ZM622.977 27.0345V20.2759H629.777V27.0345H622.977ZM622.977 33.7931V27.0345H629.777V33.7931H622.977ZM622.977 40.5517V33.7931H629.777V40.5517H622.977ZM622.977 47.3103V40.5517H629.777V47.3103H622.977ZM548.184 6.75863V0H554.983V6.75863H548.184ZM548.184 13.5172V6.75863H554.983V13.5172H548.184ZM548.184 20.2759V13.5172H554.983V20.2759H548.184ZM548.184 27.0345V20.2759H554.983V27.0345H548.184ZM548.184 33.7931V27.0345H554.983V33.7931H548.184ZM548.184 40.5517V33.7931H554.983V40.5517H548.184ZM548.184 47.3103V40.5517H554.983V47.3103H548.184ZM534.585 47.3103V40.5517H541.385V47.3103H534.585ZM534.585 40.5517V33.7931H541.385V40.5517H534.585ZM534.585 33.7931V27.0345H541.385V33.7931H534.585ZM534.585 27.0345V20.2759H541.385V27.0345H534.585ZM534.585 20.2759V13.5172H541.385V20.2759H534.585ZM534.585 13.5172V6.75863H541.385V13.5172H534.585ZM520.986 33.7931V27.0345H527.786V33.7931H520.986ZM520.986 40.5517V33.7931H527.786V40.5517H520.986ZM520.986 47.3103V40.5517H527.786V47.3103H520.986ZM527.786 47.3103V40.5517H534.585V47.3103H527.786ZM527.786 40.5517V33.7931H534.585V40.5517H527.786ZM527.786 33.7931V27.0345H534.585V33.7931H527.786ZM527.786 27.0345V20.2759H534.585V27.0345H527.786ZM527.786 20.2759V13.5172H534.585V20.2759H527.786ZM541.385 13.5172V6.75863H548.184V13.5172H541.385ZM541.385 20.2759V13.5172H548.184V20.2759H541.385ZM541.385 27.0345V20.2759H548.184V27.0345H541.385ZM541.385 33.7931V27.0345H548.184V33.7931H541.385ZM541.385 40.5517V33.7931H548.184V40.5517H541.385ZM541.385 47.3103V40.5517H548.184V47.3103H541.385ZM595.78 6.75863V0H602.579V6.75863H595.78ZM588.98 6.75863V0H595.78V6.75863H588.98ZM582.181 6.75863V0H588.98V6.75863H582.181ZM568.582 6.75863V0H575.381V6.75863H568.582ZM561.783 6.75863V0H568.582V6.75863H561.783ZM554.983 6.75863V0H561.783V6.75863H554.983ZM554.983 13.5172V6.75863H561.783V13.5172H554.983ZM561.783 13.5172V6.75863H568.582V13.5172H561.783ZM568.582 13.5172V6.75863H575.381V13.5172H568.582ZM582.181 13.5172V6.75863H588.98V13.5172H582.181ZM588.98 13.5172V6.75863H595.78V13.5172H588.98ZM595.78 13.5172V6.75863H602.579V13.5172H595.78ZM595.78 20.2759V13.5172H602.579V20.2759H595.78ZM588.98 20.2759V13.5172H595.78V20.2759H588.98ZM582.181 20.2759V13.5172H588.98V20.2759H582.181ZM568.582 20.2759V13.5172H575.381V20.2759H568.582ZM561.783 20.2759V13.5172H568.582V20.2759H561.783ZM554.983 20.2759V13.5172H561.783V20.2759H554.983ZM554.983 27.0345V20.2759H561.783V27.0345H554.983ZM561.783 27.0345V20.2759H568.582V27.0345H561.783ZM568.582 27.0345V20.2759H575.381V27.0345H568.582ZM582.181 27.0345V20.2759H588.98V27.0345H582.181ZM588.98 27.0345V20.2759H595.78V27.0345H588.98ZM595.78 27.0345V20.2759H602.579V27.0345H595.78ZM595.78 33.7931V27.0345H602.579V33.7931H595.78ZM554.983 33.7931V27.0345H561.783V33.7931H554.983ZM527.786 54.069V60.8276H520.986V54.069H527.786ZM534.585 54.069V60.8276H527.786V54.069H534.585ZM527.786 47.3103V54.069H520.986V47.3103H527.786ZM548.184 47.3103V54.069H541.385V47.3103H548.184ZM548.184 54.069V60.8276H541.385V54.069H548.184ZM554.983 54.069V60.8276H548.184V54.069H554.983ZM554.983 47.3103V54.069H548.184V47.3103H554.983ZM534.585 47.3103V54.069H527.786V47.3103H534.585ZM541.385 47.3103V54.069H534.585V47.3103H541.385ZM541.385 54.069V60.8276H534.585V54.069H541.385ZM609.378 54.069V60.8276H602.579V54.069H609.378ZM616.178 54.069V60.8276H609.378V54.069H616.178ZM609.378 47.3103V54.069H602.579V47.3103H609.378ZM629.777 47.3103V54.069H622.977V47.3103H629.777ZM629.777 54.069V60.8276H622.977V54.069H629.777ZM636.576 54.069V60.8276H629.777V54.069H636.576ZM636.576 47.3103V54.069H629.777V47.3103H636.576ZM616.178 47.3103V54.069H609.378V47.3103H616.178ZM622.977 47.3103V54.069H616.178V47.3103H622.977ZM622.977 54.069V60.8276H616.178V54.069H622.977ZM568.582 135.172V141.931H561.783V135.172H568.582ZM575.381 135.172V141.931H568.582V135.172H575.381ZM588.98 135.172V141.931H582.181V135.172H588.98ZM595.78 135.172V141.931H588.98V135.172H595.78ZM602.579 128.414V135.172H595.78V128.414H602.579ZM561.783 128.414V135.172H554.983V128.414H561.783ZM568.582 27.0345V33.7931H561.783V27.0345H568.582ZM575.381 27.0345V33.7931H568.582V27.0345H575.381ZM588.98 27.0345V33.7931H582.181V27.0345H588.98ZM595.78 27.0345V33.7931H588.98V27.0345H595.78ZM602.579 33.7931V40.5517H595.78V33.7931H602.579ZM561.783 33.7931V40.5517H554.983V33.7931H561.783ZM609.378 155.448V162.207H602.579V155.448H609.378ZM609.378 162.207V168.966H602.579V162.207H609.378ZM616.178 162.207V168.966H609.378V162.207H616.178ZM622.977 162.207V168.966H616.178V162.207H622.977ZM629.777 162.207V168.966H622.977V162.207H629.777ZM636.576 162.207V168.966H629.777V162.207H636.576ZM636.576 168.966V175.724H629.777V168.966H636.576ZM636.576 175.724V182.483H629.777V175.724H636.576ZM636.576 182.483V189.241H629.777V182.483H636.576ZM636.576 189.241V196H629.777V189.241H636.576ZM629.777 189.241V196H622.977V189.241H629.777ZM622.977 189.241V196H616.178V189.241H622.977ZM616.178 189.241V196H609.378V189.241H616.178ZM609.378 189.241V196H602.579V189.241H609.378ZM602.579 189.241V196H595.78V189.241H602.579ZM588.98 168.966V175.724H582.181V168.966H588.98ZM588.98 175.724V182.483H582.181V175.724H588.98ZM595.78 182.483V189.241H588.98V182.483H595.78ZM602.579 182.483V189.241H595.78V182.483H602.579ZM602.579 175.724V182.483H595.78V175.724H602.579ZM595.78 175.724V182.483H588.98V175.724H595.78ZM595.78 168.966V175.724H588.98V168.966H595.78ZM602.579 168.966V175.724H595.78V168.966H602.579ZM609.378 168.966V175.724H602.579V168.966H609.378ZM616.178 168.966V175.724H609.378V168.966H616.178ZM622.977 168.966V175.724H616.178V168.966H622.977ZM629.777 168.966V175.724H622.977V168.966H629.777ZM629.777 175.724V182.483H622.977V175.724H629.777ZM629.777 182.483V189.241H622.977V182.483H629.777ZM622.977 182.483V189.241H616.178V182.483H622.977ZM616.178 182.483V189.241H609.378V182.483H616.178ZM609.378 182.483V189.241H602.579V182.483H609.378ZM609.378 175.724V182.483H602.579V175.724H609.378ZM616.178 175.724V182.483H609.378V175.724H616.178ZM622.977 175.724V182.483H616.178V175.724H622.977ZM582.181 0V6.75863H575.381V0H582.181ZM582.181 6.75863V13.5172H575.381V6.75863H582.181ZM582.181 13.5172V20.2759H575.381V13.5172H582.181ZM582.181 20.2759V27.0345H575.381V20.2759H582.181ZM582.181 27.0345V33.7931H575.381V27.0345H582.181ZM582.181 135.172V141.931H575.381V135.172H582.181ZM582.181 141.931V148.69H575.381V141.931H582.181ZM582.181 148.69V155.448H575.381V148.69H582.181ZM582.181 155.448V162.207H575.381V155.448H582.181ZM582.181 162.207V168.966H575.381V162.207H582.181ZM582.181 168.966V175.724H575.381V168.966H582.181ZM582.181 175.724V182.483H575.381V175.724H582.181ZM588.98 182.483V189.241H582.181V182.483H588.98ZM595.78 189.241V196H588.98V189.241H595.78Z" fill="#2FFF00"/>
<path d="M758.832 47.3103V40.5517H765.632V47.3103H758.832ZM758.832 54.069V47.3103H765.632V54.069H758.832ZM758.832 60.8276V54.069H765.632V60.8276H758.832ZM758.832 67.5862V60.8276H765.632V67.5862H758.832ZM758.832 74.3448V67.5862H765.632V74.3448H758.832ZM758.832 81.1035V74.3448H765.632V81.1035H758.832ZM758.832 87.8621V81.1035H765.632V87.8621H758.832ZM758.832 94.6207V87.8621H765.632V94.6207H758.832ZM758.832 101.379V94.6207H765.632V101.379H758.832ZM758.832 108.138V101.379H765.632V108.138H758.832ZM758.832 114.897V108.138H765.632V114.897H758.832ZM758.832 121.655V114.897H765.632V121.655H758.832ZM758.832 128.414V121.655H765.632V128.414H758.832ZM758.832 135.172V128.414H765.632V135.172H758.832ZM758.832 141.931V135.172H765.632V141.931H758.832ZM752.033 141.931V135.172H758.832V141.931H752.033ZM752.033 135.172V128.414H758.832V135.172H752.033ZM752.033 128.414V121.655H758.832V128.414H752.033ZM752.033 121.655V114.897H758.832V121.655H752.033ZM752.033 114.897V108.138H758.832V114.897H752.033ZM752.033 108.138V101.379H758.832V108.138H752.033ZM752.033 101.379V94.6207H758.832V101.379H752.033ZM745.233 94.6207V87.8621H752.033V94.6207H745.233ZM745.233 87.8621V81.1035H752.033V87.8621H745.233ZM745.233 81.1035V74.3448H752.033V81.1035H745.233ZM745.233 74.3448V67.5862H752.033V74.3448H745.233ZM745.233 67.5862V60.8276H752.033V67.5862H745.233ZM745.233 60.8276V54.069H752.033V60.8276H745.233ZM745.233 54.069V47.3103H752.033V54.069H745.233ZM745.233 47.3103V40.5517H752.033V47.3103H745.233ZM738.434 47.3103V40.5517H745.233V47.3103H738.434ZM731.635 47.3103V40.5517H738.434V47.3103H731.635ZM731.635 54.069V47.3103H738.434V54.069H731.635ZM731.635 60.8276V54.069H738.434V60.8276H731.635ZM731.635 67.5862V60.8276H738.434V67.5862H731.635ZM731.635 74.3448V67.5862H738.434V74.3448H731.635ZM731.635 81.1035V74.3448H738.434V81.1035H731.635ZM731.635 87.8621V81.1035H738.434V87.8621H731.635ZM731.635 94.6207V87.8621H738.434V94.6207H731.635ZM738.434 94.6207V87.8621H745.233V94.6207H738.434ZM738.434 101.379V94.6207H745.233V101.379H738.434ZM738.434 87.8621V81.1035H745.233V87.8621H738.434ZM738.434 81.1035V74.3448H745.233V81.1035H738.434ZM738.434 74.3448V67.5862H745.233V74.3448H738.434ZM738.434 67.5862V60.8276H745.233V67.5862H738.434ZM738.434 60.8276V54.069H745.233V60.8276H738.434ZM738.434 54.069V47.3103H745.233V54.069H738.434ZM752.033 47.3103V40.5517H758.832V47.3103H752.033ZM752.033 54.069V47.3103H758.832V54.069H752.033ZM752.033 60.8276V54.069H758.832V60.8276H752.033ZM752.033 67.5862V60.8276H758.832V67.5862H752.033ZM752.033 74.3448V67.5862H758.832V74.3448H752.033ZM752.033 81.1035V74.3448H758.832V81.1035H752.033ZM752.033 87.8621V81.1035H758.832V87.8621H752.033ZM752.033 94.6207V87.8621H758.832V94.6207H752.033ZM758.832 168.966V162.207H765.632V168.966H758.832ZM758.832 162.207V155.448H765.632V162.207H758.832ZM758.832 155.448V148.69H765.632V155.448H758.832ZM758.832 148.69V141.931H765.632V148.69H758.832ZM738.434 162.207V155.448H745.233V162.207H738.434ZM738.434 155.448V148.69H745.233V155.448H738.434ZM738.434 148.69V141.931H745.233V148.69H738.434ZM738.434 141.931V135.172H745.233V141.931H738.434ZM738.434 135.172V128.414H745.233V135.172H738.434ZM738.434 128.414V121.655H745.233V128.414H738.434ZM738.434 121.655V114.897H745.233V121.655H738.434ZM731.635 114.897V108.138H738.434V114.897H731.635ZM731.635 108.138V101.379H738.434V108.138H731.635ZM731.635 101.379V94.6207H738.434V101.379H731.635ZM731.635 121.655V114.897H738.434V121.655H731.635ZM731.635 128.414V121.655H738.434V128.414H731.635ZM731.635 135.172V128.414H738.434V135.172H731.635ZM731.635 141.931V135.172H738.434V141.931H731.635ZM731.635 148.69V141.931H738.434V148.69H731.635ZM731.635 155.448V148.69H738.434V155.448H731.635ZM731.635 162.207V155.448H738.434V162.207H731.635ZM731.635 168.966V162.207H738.434V168.966H731.635ZM738.434 168.966V162.207H745.233V168.966H738.434ZM745.233 168.966V162.207H752.033V168.966H745.233ZM745.233 162.207V155.448H752.033V162.207H745.233ZM752.033 155.448V148.69H758.832V155.448H752.033ZM752.033 148.69V141.931H758.832V148.69H752.033ZM752.033 162.207V155.448H758.832V162.207H752.033ZM752.033 168.966V162.207H758.832V168.966H752.033ZM745.233 155.448V148.69H752.033V155.448H745.233ZM745.233 148.69V141.931H752.033V148.69H745.233ZM745.233 141.931V135.172H752.033V141.931H745.233ZM745.233 135.172V128.414H752.033V135.172H745.233ZM745.233 128.414V121.655H752.033V128.414H745.233ZM745.233 121.655V114.897H752.033V121.655H745.233ZM745.233 114.897V108.138H752.033V114.897H745.233ZM745.233 108.138V101.379H752.033V108.138H745.233ZM745.233 101.379V94.6207H752.033V101.379H745.233ZM738.434 108.138V101.379H745.233V108.138H738.434ZM738.434 114.897V108.138H745.233V114.897H738.434ZM684.039 47.3103V40.5517H690.838V47.3103H684.039ZM677.24 47.3103V40.5517H684.039V47.3103H677.24ZM670.44 47.3103V40.5517H677.24V47.3103H670.44ZM663.641 47.3103V40.5517H670.44V47.3103H663.641ZM656.841 54.069V47.3103H663.641V54.069H656.841ZM656.841 60.8276V54.069H663.641V60.8276H656.841ZM656.841 47.3103V40.5517H663.641V47.3103H656.841ZM663.641 54.069V47.3103H670.44V54.069H663.641ZM670.44 54.069V47.3103H677.24V54.069H670.44ZM677.24 54.069V47.3103H684.039V54.069H677.24ZM684.039 54.069V47.3103H690.838V54.069H684.039ZM684.039 60.8276V54.069H690.838V60.8276H684.039ZM684.039 67.5862V60.8276H690.838V67.5862H684.039ZM677.24 67.5862V60.8276H684.039V67.5862H677.24ZM670.44 67.5862V60.8276H677.24V67.5862H670.44ZM663.641 67.5862V60.8276H670.44V67.5862H663.641ZM656.841 67.5862V60.8276H663.641V67.5862H656.841ZM663.641 60.8276V54.069H670.44V60.8276H663.641ZM670.44 60.8276V54.069H677.24V60.8276H670.44ZM677.24 60.8276V54.069H684.039V60.8276H677.24ZM656.841 141.931V135.172H663.641V141.931H656.841ZM663.641 141.931V135.172H670.44V141.931H663.641ZM677.24 141.931V135.172H684.039V141.931H677.24ZM677.24 135.172V128.414H684.039V135.172H677.24ZM677.24 128.414V121.655H684.039V128.414H677.24ZM684.039 121.655V114.897H690.838V121.655H684.039ZM684.039 114.897V108.138H690.838V114.897H684.039ZM684.039 108.138V101.379H690.838V108.138H684.039ZM684.039 101.379V94.6207H690.838V101.379H684.039ZM684.039 94.6207V87.8621H690.838V94.6207H684.039ZM684.039 87.8621V81.1035H690.838V87.8621H684.039ZM684.039 81.1035V74.3448H690.838V81.1035H684.039ZM684.039 74.3448V67.5862H690.838V74.3448H684.039ZM677.24 74.3448V67.5862H684.039V74.3448H677.24ZM670.44 74.3448V67.5862H677.24V74.3448H670.44ZM663.641 74.3448V67.5862H670.44V74.3448H663.641ZM656.841 74.3448V67.5862H663.641V74.3448H656.841ZM656.841 81.1035V74.3448H663.641V81.1035H656.841ZM656.841 94.6207V87.8621H663.641V94.6207H656.841ZM656.841 101.379V94.6207H663.641V101.379H656.841ZM656.841 108.138V101.379H663.641V108.138H656.841ZM656.841 114.897V108.138H663.641V114.897H656.841ZM656.841 121.655V114.897H663.641V121.655H656.841ZM656.841 128.414V121.655H663.641V128.414H656.841ZM656.841 135.172V128.414H663.641V135.172H656.841ZM663.641 108.138V101.379H670.44V108.138H663.641ZM663.641 94.6207V87.8621H670.44V94.6207H663.641ZM663.641 87.8621V81.1035H670.44V87.8621H663.641ZM663.641 81.1035V74.3448H670.44V81.1035H663.641ZM656.841 87.8621V81.1035H663.641V87.8621H656.841ZM663.641 121.655V114.897H670.44V121.655H663.641ZM670.44 121.655V114.897H677.24V121.655H670.44ZM677.24 121.655V114.897H684.039V121.655H677.24ZM677.24 114.897V108.138H684.039V114.897H677.24ZM677.24 108.138V101.379H684.039V108.138H677.24ZM677.24 101.379V94.6207H684.039V101.379H677.24ZM677.24 94.6207V87.8621H684.039V94.6207H677.24ZM677.24 87.8621V81.1035H684.039V87.8621H677.24ZM677.24 81.1035V74.3448H684.039V81.1035H677.24ZM670.44 81.1035V74.3448H677.24V81.1035H670.44ZM670.44 87.8621V81.1035H677.24V87.8621H670.44ZM670.44 94.6207V87.8621H677.24V94.6207H670.44ZM670.44 101.379V94.6207H677.24V101.379H670.44ZM670.44 108.138V101.379H677.24V108.138H670.44ZM670.44 114.897V108.138H677.24V114.897H670.44ZM663.641 114.897V108.138H670.44V114.897H663.641ZM663.641 101.379V94.6207H670.44V101.379H663.641ZM663.641 128.414V121.655H670.44V128.414H663.641ZM663.641 135.172V128.414H670.44V135.172H663.641ZM670.44 135.172V128.414H677.24V135.172H670.44ZM670.44 128.414V121.655H677.24V128.414H670.44ZM684.039 128.414V121.655H690.838V128.414H684.039ZM684.039 135.172V128.414H690.838V135.172H684.039ZM684.039 141.931V135.172H690.838V141.931H684.039ZM670.44 141.931V135.172H677.24V141.931H670.44ZM684.039 168.966V162.207H690.838V168.966H684.039ZM684.039 162.207V155.448H690.838V162.207H684.039ZM677.24 162.207V155.448H684.039V162.207H677.24ZM670.44 162.207V155.448H677.24V162.207H670.44ZM670.44 155.448V148.69H677.24V155.448H670.44ZM663.641 155.448V148.69H670.44V155.448H663.641ZM663.641 148.69V141.931H670.44V148.69H663.641ZM670.44 148.69V141.931H677.24V148.69H670.44ZM677.24 148.69V141.931H684.039V148.69H677.24ZM677.24 155.448V148.69H684.039V155.448H677.24ZM684.039 155.448V148.69H690.838V155.448H684.039ZM690.838 155.448V148.69H697.638V155.448H690.838ZM690.838 148.69V141.931H697.638V148.69H690.838ZM684.039 148.69V141.931H690.838V148.69H684.039ZM690.838 141.931V135.172H697.638V141.931H690.838ZM697.638 148.69V141.931H704.437V148.69H697.638ZM697.638 155.448V148.69H704.437V155.448H697.638ZM697.638 162.207V155.448H704.437V162.207H697.638ZM697.638 168.966V162.207H704.437V168.966H697.638ZM690.838 168.966V162.207H697.638V168.966H690.838ZM690.838 162.207V155.448H697.638V162.207H690.838ZM704.437 168.966V162.207H711.237V168.966H704.437ZM704.437 162.207V155.448H711.237V162.207H704.437ZM704.437 155.448V148.69H711.237V155.448H704.437ZM704.437 148.69V141.931H711.237V148.69H704.437ZM711.237 168.966V162.207H718.036V168.966H711.237ZM711.237 162.207V155.448H718.036V162.207H711.237ZM718.036 162.207V155.448H724.835V162.207H718.036ZM718.036 155.448V148.69H724.835V155.448H718.036ZM724.835 155.448V148.69H731.635V155.448H724.835ZM724.835 148.69V141.931H731.635V148.69H724.835ZM718.036 148.69V141.931H724.835V148.69H718.036ZM711.237 148.69V141.931H718.036V148.69H711.237ZM711.237 155.448V148.69H718.036V155.448H711.237ZM718.036 168.966V162.207H724.835V168.966H718.036ZM724.835 162.207V155.448H731.635V162.207H724.835ZM731.635 135.172V141.931H724.835V135.172H731.635Z" fill="#2FFF00"/>
<path d="M799.755 0V6.75863H792.955V0H799.755ZM799.755 6.75863V13.5172H792.955V6.75863H799.755ZM799.755 13.5172V20.2759H792.955V13.5172H799.755ZM820.153 0V6.75863H813.354V0H820.153ZM820.153 6.75863V13.5172H813.354V6.75863H820.153ZM820.153 13.5172V20.2759H813.354V13.5172H820.153ZM826.952 13.5172V20.2759H820.153V13.5172H826.952ZM826.952 6.75863V13.5172H820.153V6.75863H826.952ZM826.952 0V6.75863H820.153V0H826.952ZM813.354 0V6.75863H806.554V0H813.354ZM806.554 0V6.75863H799.755V0H806.554ZM806.554 6.75863V13.5172H799.755V6.75863H806.554ZM813.354 6.75863V13.5172H806.554V6.75863H813.354ZM813.354 13.5172V20.2759H806.554V13.5172H813.354ZM806.554 13.5172V20.2759H799.755V13.5172H806.554ZM799.755 20.2759V27.0345H792.955V20.2759H799.755ZM806.554 20.2759V27.0345H799.755V20.2759H806.554ZM813.354 20.2759V27.0345H806.554V20.2759H813.354ZM820.153 20.2759V27.0345H813.354V20.2759H820.153ZM826.952 20.2759V27.0345H820.153V20.2759H826.952ZM799.755 162.207V168.966H792.955V162.207H799.755ZM799.755 155.448V162.207H792.955V155.448H799.755ZM799.755 148.69V155.448H792.955V148.69H799.755ZM799.755 141.931V148.69H792.955V141.931H799.755ZM799.755 135.172V141.931H792.955V135.172H799.755ZM799.755 128.414V135.172H792.955V128.414H799.755ZM799.755 121.655V128.414H792.955V121.655H799.755ZM799.755 114.897V121.655H792.955V114.897H799.755ZM799.755 108.138V114.897H792.955V108.138H799.755ZM799.755 101.379V108.138H792.955V101.379H799.755ZM799.755 94.6207V101.379H792.955V94.6207H799.755ZM799.755 87.8621V94.6207H792.955V87.8621H799.755ZM799.755 81.1035V87.8621H792.955V81.1035H799.755ZM799.755 74.3448V81.1035H792.955V74.3448H799.755ZM799.755 67.5862V74.3448H792.955V67.5862H799.755ZM806.554 67.5862V74.3448H799.755V67.5862H806.554ZM806.554 74.3448V81.1035H799.755V74.3448H806.554ZM806.554 81.1035V87.8621H799.755V81.1035H806.554ZM806.554 87.8621V94.6207H799.755V87.8621H806.554ZM806.554 94.6207V101.379H799.755V94.6207H806.554ZM806.554 101.379V108.138H799.755V101.379H806.554ZM806.554 108.138V114.897H799.755V108.138H806.554ZM813.354 114.897V121.655H806.554V114.897H813.354ZM813.354 121.655V128.414H806.554V121.655H813.354ZM813.354 128.414V135.172H806.554V128.414H813.354ZM813.354 135.172V141.931H806.554V135.172H813.354ZM813.354 141.931V148.69H806.554V141.931H813.354ZM813.354 148.69V155.448H806.554V148.69H813.354ZM813.354 155.448V162.207H806.554V155.448H813.354ZM813.354 162.207V168.966H806.554V162.207H813.354ZM820.153 162.207V168.966H813.354V162.207H820.153ZM826.952 162.207V168.966H820.153V162.207H826.952ZM826.952 155.448V162.207H820.153V155.448H826.952ZM826.952 148.69V155.448H820.153V148.69H826.952ZM826.952 141.931V148.69H820.153V141.931H826.952ZM826.952 135.172V141.931H820.153V135.172H826.952ZM826.952 128.414V135.172H820.153V128.414H826.952ZM826.952 121.655V128.414H820.153V121.655H826.952ZM826.952 114.897V121.655H820.153V114.897H826.952ZM820.153 114.897V121.655H813.354V114.897H820.153ZM820.153 108.138V114.897H813.354V108.138H820.153ZM820.153 121.655V128.414H813.354V121.655H820.153ZM820.153 128.414V135.172H813.354V128.414H820.153ZM820.153 135.172V141.931H813.354V135.172H820.153ZM820.153 141.931V148.69H813.354V141.931H820.153ZM820.153 148.69V155.448H813.354V148.69H820.153ZM820.153 155.448V162.207H813.354V155.448H820.153ZM806.554 162.207V168.966H799.755V162.207H806.554ZM806.554 155.448V162.207H799.755V155.448H806.554ZM806.554 148.69V155.448H799.755V148.69H806.554ZM806.554 141.931V148.69H799.755V141.931H806.554ZM806.554 135.172V141.931H799.755V135.172H806.554ZM806.554 128.414V135.172H799.755V128.414H806.554ZM806.554 121.655V128.414H799.755V121.655H806.554ZM806.554 114.897V121.655H799.755V114.897H806.554ZM799.755 54.069V60.8276H792.955V54.069H799.755ZM799.755 60.8276V67.5862H792.955V60.8276H799.755ZM820.153 54.069V60.8276H813.354V54.069H820.153ZM820.153 60.8276V67.5862H813.354V60.8276H820.153ZM820.153 67.5862V74.3448H813.354V67.5862H820.153ZM820.153 74.3448V81.1035H813.354V74.3448H820.153ZM820.153 81.1035V87.8621H813.354V81.1035H820.153ZM820.153 87.8621V94.6207H813.354V87.8621H820.153ZM826.952 94.6207V101.379H820.153V94.6207H826.952ZM826.952 101.379V108.138H820.153V101.379H826.952ZM826.952 108.138V114.897H820.153V108.138H826.952ZM826.952 87.8621V94.6207H820.153V87.8621H826.952ZM826.952 81.1035V87.8621H820.153V81.1035H826.952ZM826.952 74.3448V81.1035H820.153V74.3448H826.952ZM826.952 67.5862V74.3448H820.153V67.5862H826.952ZM826.952 60.8276V67.5862H820.153V60.8276H826.952ZM826.952 54.069V60.8276H820.153V54.069H826.952ZM806.554 54.069V60.8276H799.755V54.069H806.554ZM806.554 60.8276V67.5862H799.755V60.8276H806.554ZM813.354 54.069V60.8276H806.554V54.069H813.354ZM813.354 60.8276V67.5862H806.554V60.8276H813.354ZM813.354 67.5862V74.3448H806.554V67.5862H813.354ZM813.354 74.3448V81.1035H806.554V74.3448H813.354ZM813.354 81.1035V87.8621H806.554V81.1035H813.354ZM813.354 87.8621V94.6207H806.554V87.8621H813.354ZM813.354 94.6207V101.379H806.554V94.6207H813.354ZM813.354 101.379V108.138H806.554V101.379H813.354ZM813.354 108.138V114.897H806.554V108.138H813.354ZM820.153 101.379V108.138H813.354V101.379H820.153ZM820.153 94.6207V101.379H813.354V94.6207H820.153ZM820.153 47.3103V54.069H813.354V47.3103H820.153ZM826.952 47.3103V54.069H820.153V47.3103H826.952ZM813.354 47.3103V54.069H806.554V47.3103H813.354ZM806.554 47.3103V54.069H799.755V47.3103H806.554ZM799.755 47.3103V54.069H792.955V47.3103H799.755Z" fill="#2FFF00"/>
<path d="M861.009 40.5517V47.3103H854.21V40.5517H861.009ZM867.809 40.5517V47.3103H861.009V40.5517H867.809ZM874.608 40.5517V47.3103H867.809V40.5517H874.608ZM881.407 40.5517V47.3103H874.608V40.5517H881.407ZM888.207 40.5517V47.3103H881.407V40.5517H888.207ZM895.006 40.5517V47.3103H888.207V40.5517H895.006ZM901.806 40.5517V47.3103H895.006V40.5517H901.806ZM908.605 40.5517V47.3103H901.806V40.5517H908.605ZM915.404 40.5517V47.3103H908.605V40.5517H915.404ZM922.204 40.5517V47.3103H915.404V40.5517H922.204ZM929.003 40.5517V47.3103H922.204V40.5517H929.003ZM935.802 40.5517V47.3103H929.003V40.5517H935.802ZM942.602 40.5517V47.3103H935.802V40.5517H942.602ZM949.401 40.5517V47.3103H942.602V40.5517H949.401ZM956.201 40.5517V47.3103H949.401V40.5517H956.201ZM963 40.5517V47.3103H956.201V40.5517H963ZM963 47.3103V54.069H956.201V47.3103H963ZM963 54.069V60.8276H956.201V54.069H963ZM963 60.8276V67.5862H956.201V60.8276H963ZM956.201 60.8276V67.5862H949.401V60.8276H956.201ZM949.401 60.8276V67.5862H942.602V60.8276H949.401ZM942.602 60.8276V67.5862H935.802V60.8276H942.602ZM935.802 60.8276V67.5862H929.003V60.8276H935.802ZM929.003 60.8276V67.5862H922.204V60.8276H929.003ZM922.204 60.8276V67.5862H915.404V60.8276H922.204ZM915.404 60.8276V67.5862H908.605V60.8276H915.404ZM908.605 60.8276V67.5862H901.806V60.8276H908.605ZM901.806 60.8276V67.5862H895.006V60.8276H901.806ZM895.006 60.8276V67.5862H888.207V60.8276H895.006ZM888.207 54.069V60.8276H881.407V54.069H888.207ZM881.407 54.069V60.8276H874.608V54.069H881.407ZM874.608 54.069V60.8276H867.809V54.069H874.608ZM867.809 54.069V60.8276H861.009V54.069H867.809ZM861.009 54.069V60.8276H854.21V54.069H861.009ZM861.009 47.3103V54.069H854.21V47.3103H861.009ZM867.809 47.3103V54.069H861.009V47.3103H867.809ZM895.006 54.069V60.8276H888.207V54.069H895.006ZM901.806 54.069V60.8276H895.006V54.069H901.806ZM908.605 54.069V60.8276H901.806V54.069H908.605ZM915.404 54.069V60.8276H908.605V54.069H915.404ZM922.204 54.069V60.8276H915.404V54.069H922.204ZM929.003 54.069V60.8276H922.204V54.069H929.003ZM935.802 54.069V60.8276H929.003V54.069H935.802ZM942.602 54.069V60.8276H935.802V54.069H942.602ZM949.401 54.069V60.8276H942.602V54.069H949.401ZM949.401 47.3103V54.069H942.602V47.3103H949.401ZM956.201 47.3103V54.069H949.401V47.3103H956.201ZM956.201 54.069V60.8276H949.401V54.069H956.201ZM942.602 47.3103V54.069H935.802V47.3103H942.602ZM935.802 47.3103V54.069H929.003V47.3103H935.802ZM929.003 47.3103V54.069H922.204V47.3103H929.003ZM922.204 47.3103V54.069H915.404V47.3103H922.204ZM915.404 47.3103V54.069H908.605V47.3103H915.404ZM908.605 47.3103V54.069H901.806V47.3103H908.605ZM901.806 47.3103V54.069H895.006V47.3103H901.806ZM895.006 47.3103V54.069H888.207V47.3103H895.006ZM888.207 47.3103V54.069H881.407V47.3103H888.207ZM881.407 47.3103V54.069H874.608V47.3103H881.407ZM874.608 47.3103V54.069H867.809V47.3103H874.608ZM861.009 60.8276V67.5862H854.21V60.8276H861.009ZM867.809 60.8276V67.5862H861.009V60.8276H867.809ZM874.608 60.8276V67.5862H867.809V60.8276H874.608ZM881.407 60.8276V67.5862H874.608V60.8276H881.407ZM888.207 60.8276V67.5862H881.407V60.8276H888.207ZM963 141.931V148.69H956.201V141.931H963ZM963 148.69V155.448H956.201V148.69H963ZM963 155.448V162.207H956.201V155.448H963ZM963 162.207V168.966H956.201V162.207H963ZM956.201 162.207V168.966H949.401V162.207H956.201ZM949.401 162.207V168.966H942.602V162.207H949.401ZM935.802 162.207V168.966H929.003V162.207H935.802ZM929.003 162.207V168.966H922.204V162.207H929.003ZM922.204 162.207V168.966H915.404V162.207H922.204ZM915.404 162.207V168.966H908.605V162.207H915.404ZM908.605 162.207V168.966H901.806V162.207H908.605ZM901.806 162.207V168.966H895.006V162.207H901.806ZM895.006 162.207V168.966H888.207V162.207H895.006ZM888.207 162.207V168.966H881.407V162.207H888.207ZM881.407 162.207V168.966H874.608V162.207H881.407ZM874.608 162.207V168.966H867.809V162.207H874.608ZM867.809 162.207V168.966H861.009V162.207H867.809ZM861.009 162.207V168.966H854.21V162.207H861.009ZM942.602 162.207V168.966H935.802V162.207H942.602ZM861.009 141.931V148.69H854.21V141.931H861.009ZM867.809 141.931V148.69H861.009V141.931H867.809ZM874.608 141.931V148.69H867.809V141.931H874.608ZM881.407 141.931V148.69H874.608V141.931H881.407ZM888.207 141.931V148.69H881.407V141.931H888.207ZM895.006 141.931V148.69H888.207V141.931H895.006ZM901.806 141.931V148.69H895.006V141.931H901.806ZM908.605 141.931V148.69H901.806V141.931H908.605ZM915.404 141.931V148.69H908.605V141.931H915.404ZM922.204 141.931V148.69H915.404V141.931H922.204ZM929.003 141.931V148.69H922.204V141.931H929.003ZM935.802 141.931V148.69H929.003V141.931H935.802ZM942.602 141.931V148.69H935.802V141.931H942.602ZM949.401 141.931V148.69H942.602V141.931H949.401ZM956.201 141.931V148.69H949.401V141.931H956.201ZM956.201 148.69V155.448H949.401V148.69H956.201ZM956.201 155.448V162.207H949.401V155.448H956.201ZM949.401 155.448V162.207H942.602V155.448H949.401ZM942.602 155.448V162.207H935.802V155.448H942.602ZM935.802 155.448V162.207H929.003V155.448H935.802ZM929.003 155.448V162.207H922.204V155.448H929.003ZM922.204 155.448V162.207H915.404V155.448H922.204ZM915.404 155.448V162.207H908.605V155.448H915.404ZM908.605 155.448V162.207H901.806V155.448H908.605ZM901.806 155.448V162.207H895.006V155.448H901.806ZM895.006 155.448V162.207H888.207V155.448H895.006ZM895.006 148.69V155.448H888.207V148.69H895.006ZM888.207 148.69V155.448H881.407V148.69H888.207ZM881.407 148.69V155.448H874.608V148.69H881.407ZM874.608 148.69V155.448H867.809V148.69H874.608ZM867.809 148.69V155.448H861.009V148.69H867.809ZM861.009 148.69V155.448H854.21V148.69H861.009ZM861.009 155.448V162.207H854.21V155.448H861.009ZM867.809 155.448V162.207H861.009V155.448H867.809ZM874.608 155.448V162.207H867.809V155.448H874.608ZM881.407 155.448V162.207H874.608V155.448H881.407ZM888.207 155.448V162.207H881.407V155.448H888.207ZM908.605 148.69V155.448H901.806V148.69H908.605ZM915.404 148.69V155.448H908.605V148.69H915.404ZM901.806 148.69V155.448H895.006V148.69H901.806ZM929.003 148.69V155.448H922.204V148.69H929.003ZM935.802 148.69V155.448H929.003V148.69H935.802ZM942.602 148.69V155.448H935.802V148.69H942.602ZM949.401 148.69V155.448H942.602V148.69H949.401ZM922.204 148.69V155.448H915.404V148.69H922.204ZM963 67.5862V74.3448H956.201V67.5862H963ZM956.201 74.3448V81.1035H949.401V74.3448H956.201ZM949.401 74.3448V81.1035H942.602V74.3448H949.401ZM949.401 81.1035V87.8621H942.602V81.1035H949.401ZM942.602 81.1035V87.8621H935.802V81.1035H942.602ZM942.602 87.8621V94.6207H935.802V87.8621H942.602ZM935.802 87.8621V94.6207H929.003V87.8621H935.802ZM929.003 87.8621V94.6207H922.204V87.8621H929.003ZM929.003 94.6207V101.379H922.204V94.6207H929.003ZM922.204 94.6207V101.379H915.404V94.6207H922.204ZM922.204 101.379V108.138H915.404V101.379H922.204ZM915.404 101.379V108.138H908.605V101.379H915.404ZM915.404 108.138V114.897H908.605V108.138H915.404ZM908.605 108.138V114.897H901.806V108.138H908.605ZM908.605 114.897V121.655H901.806V114.897H908.605ZM901.806 114.897V121.655H895.006V114.897H901.806ZM901.806 121.655V128.414H895.006V121.655H901.806ZM895.006 121.655V128.414H888.207V121.655H895.006ZM895.006 128.414V135.172H888.207V128.414H895.006ZM895.006 135.172V141.931H888.207V135.172H895.006ZM888.207 135.172V141.931H881.407V135.172H888.207ZM901.806 128.414V135.172H895.006V128.414H901.806ZM908.605 121.655V128.414H901.806V121.655H908.605ZM915.404 114.897V121.655H908.605V114.897H915.404ZM922.204 108.138V114.897H915.404V108.138H922.204ZM929.003 101.379V108.138H922.204V101.379H929.003ZM935.802 94.6207V101.379H929.003V94.6207H935.802ZM956.201 67.5862V74.3448H949.401V67.5862H956.201ZM949.401 67.5862V74.3448H942.602V67.5862H949.401ZM942.602 67.5862V74.3448H935.802V67.5862H942.602ZM935.802 67.5862V74.3448H929.003V67.5862H935.802ZM929.003 67.5862V74.3448H922.204V67.5862H929.003ZM929.003 74.3448V81.1035H922.204V74.3448H929.003ZM935.802 74.3448V81.1035H929.003V74.3448H935.802ZM942.602 74.3448V81.1035H935.802V74.3448H942.602ZM935.802 81.1035V87.8621H929.003V81.1035H935.802ZM929.003 81.1035V87.8621H922.204V81.1035H929.003ZM922.204 81.1035V87.8621H915.404V81.1035H922.204ZM922.204 87.8621V94.6207H915.404V87.8621H922.204ZM915.404 87.8621V94.6207H908.605V87.8621H915.404ZM908.605 94.6207V101.379H901.806V94.6207H908.605ZM901.806 101.379V108.138H895.006V101.379H901.806ZM895.006 108.138V114.897H888.207V108.138H895.006ZM895.006 114.897V121.655H888.207V114.897H895.006ZM888.207 114.897V121.655H881.407V114.897H888.207ZM888.207 121.655V128.414H881.407V121.655H888.207ZM881.407 121.655V128.414H874.608V121.655H881.407ZM881.407 128.414V135.172H874.608V128.414H881.407ZM874.608 128.414V135.172H867.809V128.414H874.608ZM874.608 135.172V141.931H867.809V135.172H874.608ZM867.809 135.172V141.931H861.009V135.172H867.809ZM861.009 135.172V141.931H854.21V135.172H861.009ZM867.809 128.414V135.172H861.009V128.414H867.809ZM874.608 121.655V128.414H867.809V121.655H874.608ZM881.407 114.897V121.655H874.608V114.897H881.407ZM888.207 108.138V114.897H881.407V108.138H888.207ZM895.006 101.379V108.138H888.207V101.379H895.006ZM901.806 94.6207V101.379H895.006V94.6207H901.806ZM908.605 87.8621V94.6207H901.806V87.8621H908.605ZM915.404 81.1035V87.8621H908.605V81.1035H915.404ZM922.204 74.3448V81.1035H915.404V74.3448H922.204ZM915.404 94.6207V101.379H908.605V94.6207H915.404ZM908.605 101.379V108.138H901.806V101.379H908.605ZM901.806 108.138V114.897H895.006V108.138H901.806ZM888.207 128.414V135.172H881.407V128.414H888.207ZM881.407 135.172V141.931H874.608V135.172H881.407Z" fill="#2FFF00"/>
</g>
<defs>
<filter id="filter0_d_418_358" x="0" y="0" width="967" height="204" filterUnits="userSpaceOnUse" color-interpolation-filters="sRGB">
<feFlood flood-opacity="0" result="BackgroundImageFix"/>
<feColorMatrix in="SourceAlpha" type="matrix" values="0 0 0 0 0 0 0 0 0 0 0 0 0 0 0 0 0 0 127 0" result="hardAlpha"/>
<feOffset dy="4"/>
<feGaussianBlur stdDeviation="2"/>
<feComposite in2="hardAlpha" operator="out"/>
<feColorMatrix type="matrix" values="0 0 0 0 0 0 0 0 0 0 0 0 0 0 0 0 0 0 0.25 0"/>
<feBlend mode="normal" in2="BackgroundImageFix" result="effect1_dropShadow_418_358"/>
<feBlend mode="normal" in="SourceGraphic" in2="effect1_dropShadow_418_358" result="shape"/>
</filter>
</defs>
</svg>
