<svg width="36" height="36" viewBox="0 0 36 36" fill="none" xmlns="http://www.w3.org/2000/svg">
<path d="M7.05664 0.679504H28.0566V4.1795H7.05664V0.679504ZM3.55664 7.6795V4.1795H7.05664V7.6795H3.55664ZM3.55664 28.6795V7.6795H0.0566406V28.6795H3.55664ZM7.05664 32.1795V28.6795H3.55664V32.1795H7.05664ZM28.0566 32.1795V35.6795H7.05664V32.1795H28.0566ZM31.5566 28.6795V32.1795H28.0566V28.6795H31.5566ZM31.5566 7.6795H35.0566V28.6795H31.5566V7.6795ZM31.5566 7.6795V4.1795H28.0566V7.6795H31.5566ZM15.8066 5.9295H19.3066V9.4295H24.5566V12.9295H14.0566V16.4295H24.5566V26.9295H19.3066V30.4295H15.8066V26.9295H10.5566V23.4295H21.0566V19.9295H10.5566V9.4295H15.8066V5.9295Z" fill="white"/>
</svg>
