<svg width="42" height="42" viewBox="0 0 42 42" fill="none" xmlns="http://www.w3.org/2000/svg">
<path d="M8.33333 0H33.3333V4.16667H8.33333V0ZM4.16667 8.33333V4.16667H8.33333V8.33333H4.16667ZM4.16667 33.3333V8.33333H0V33.3333H4.16667ZM8.33333 37.5V33.3333H4.16667V37.5H8.33333ZM33.3333 37.5V41.6667H8.33333V37.5H33.3333ZM37.5 33.3333V37.5H33.3333V33.3333H37.5ZM37.5 8.33333H41.6667V33.3333H37.5V8.33333ZM37.5 8.33333V4.16667H33.3333V8.33333H37.5ZM18.75 6.25H22.9167V10.4167H29.1667V14.5833H16.6667V18.75H29.1667V31.25H22.9167V35.4167H18.75V31.25H12.5V27.0833H25V22.9167H12.5V10.4167H18.75V6.25Z" fill="#FFDB00"/>
</svg>
