<svg width="20" height="19" viewBox="0 0 20 19" fill="none" xmlns="http://www.w3.org/2000/svg">
<path d="M2.61286 18.328H0V15.9048L14.7337 2.20684L17.3831 4.66438L2.61286 18.328Z" fill="#2FFF00"/>
<path d="M17.9442 4.14142L15.2971 1.68653L16.8012 0.335723C17.0335 0.11896 17.3898 3.8961e-06 17.7199 3.8961e-06C17.8825 -0.000389914 18.0435 0.0290742 18.1937 0.0866955C18.3439 0.144317 18.4803 0.228954 18.595 0.335723L19.4026 1.0847C19.5173 1.19099 19.6081 1.31725 19.6699 1.45623C19.7317 1.59521 19.7633 1.74415 19.7627 1.89448C19.7627 2.20289 19.634 2.53112 19.4007 2.74744L17.9442 4.14142Z" fill="#2FFF00"/>
</svg>
