<svg width="114" height="104" viewBox="0 0 114 104" fill="none" xmlns="http://www.w3.org/2000/svg">
<path d="M41.4998 0.333252H20.8332V10.6666H10.4998V20.9999H0.166504V51.9999H10.4998V62.3333H20.8332V72.6666H31.1665V82.9999H41.4998V93.3333H51.8332V103.667H62.1665V93.3333H72.4998V82.9999H82.8332V72.6666H93.1665V62.3333H103.5V51.9999H113.833V20.9999H103.5V10.6666H93.1665V0.333252H72.4998V10.6666H62.1665V20.9999H51.8332V10.6666H41.4998V0.333252ZM41.4998 10.6666V20.9999H51.8332V31.3333H62.1665V20.9999H72.4998V10.6666H93.1665V20.9999H103.5V51.9999H93.1665V62.3333H82.8332V72.6666H72.4998V82.9999H62.1665V93.3333H51.8332V82.9999H41.4998V72.6666H31.1665V62.3333H20.8332V51.9999H10.4998V20.9999H20.8332V10.6666H41.4998Z" fill="#FF0000"/>
</svg>
