<svg width="90" height="50" viewBox="0 0 90 50" fill="none" xmlns="http://www.w3.org/2000/svg">
<path d="M25 10C23.5833 10 22.3967 9.52 21.44 8.56C20.4834 7.6 20.0033 6.41333 20 5C19.9967 3.58667 20.4767 2.4 21.44 1.44C22.4034 0.480001 23.59 0 25 0H85C86.4167 0 87.605 0.480001 88.565 1.44C89.525 2.4 90.0033 3.58667 90 5C89.9967 6.41333 89.5167 7.60167 88.56 8.565C87.6034 9.52833 86.4167 10.0067 85 10H25ZM25 30C23.5833 30 22.3967 29.52 21.44 28.56C20.4834 27.6 20.0033 26.4133 20 25C19.9967 23.5867 20.4767 22.4 21.44 21.44C22.4034 20.48 23.59 20 25 20H85C86.4167 20 87.605 20.48 88.565 21.44C89.525 22.4 90.0033 23.5867 90 25C89.9967 26.4133 89.5167 27.6017 88.56 28.565C87.6034 29.5283 86.4167 30.0067 85 30H25ZM25 50C23.5833 50 22.3967 49.52 21.44 48.56C20.4834 47.6 20.0033 46.4133 20 45C19.9967 43.5867 20.4767 42.4 21.44 41.44C22.4034 40.48 23.59 40 25 40H85C86.4167 40 87.605 40.48 88.565 41.44C89.525 42.4 90.0033 43.5867 90 45C89.9967 46.4133 89.5167 47.6017 88.56 48.565C87.6034 49.5283 86.4167 50.0067 85 50H25ZM5.00002 10C3.58335 10 2.39668 9.52 1.44002 8.56C0.483351 7.6 0.00335057 6.41333 1.72414e-05 5C-0.00331609 3.58667 0.476685 2.4 1.44002 1.44C2.40335 0.480001 3.59002 0 5.00002 0C6.41002 0 7.59835 0.480001 8.56502 1.44C9.53168 2.4 10.01 3.58667 10 5C9.99002 6.41333 9.51002 7.60167 8.56002 8.565C7.61002 9.52833 6.42335 10.0067 5.00002 10ZM5.00002 30C3.58335 30 2.39668 29.52 1.44002 28.56C0.483351 27.6 0.00335057 26.4133 1.72414e-05 25C-0.00331609 23.5867 0.476685 22.4 1.44002 21.44C2.40335 20.48 3.59002 20 5.00002 20C6.41002 20 7.59835 20.48 8.56502 21.44C9.53168 22.4 10.01 23.5867 10 25C9.99002 26.4133 9.51002 27.6017 8.56002 28.565C7.61002 29.5283 6.42335 30.0067 5.00002 30ZM5.00002 50C3.58335 50 2.39668 49.52 1.44002 48.56C0.483351 47.6 0.00335057 46.4133 1.72414e-05 45C-0.00331609 43.5867 0.476685 42.4 1.44002 41.44C2.40335 40.48 3.59002 40 5.00002 40C6.41002 40 7.59835 40.48 8.56502 41.44C9.53168 42.4 10.01 43.5867 10 45C9.99002 46.4133 9.51002 47.6017 8.56002 48.565C7.61002 49.5283 6.42335 50.0067 5.00002 50Z" fill="#2B4E23"/>
</svg>
