<svg width="114" height="114" viewBox="0 0 114 114" fill="none" xmlns="http://www.w3.org/2000/svg">
<path d="M97.6615 48.3965L62.0365 12.7715C60.7005 11.4363 58.8889 10.6863 57 10.6863C55.1112 10.6863 53.2996 11.4363 51.9636 12.7715L16.3386 48.3965C15.6737 49.0564 15.1467 49.8419 14.7882 50.7073C14.4296 51.5727 14.2467 52.5007 14.25 53.4374V96.1874C14.25 97.1323 14.6254 98.0384 15.2935 98.7065C15.9616 99.3746 16.8677 99.7499 17.8125 99.7499H46.3125C47.2574 99.7499 48.1635 99.3746 48.8316 98.7065C49.4997 98.0384 49.875 97.1323 49.875 96.1874V71.2499H64.125V96.1874C64.125 97.1323 64.5004 98.0384 65.1685 98.7065C65.8366 99.3746 66.7427 99.7499 67.6875 99.7499H96.1876C97.1324 99.7499 98.0385 99.3746 98.7066 98.7065C99.3747 98.0384 99.7501 97.1323 99.7501 96.1874V53.4374C99.7534 52.5007 99.5705 51.5727 99.2119 50.7073C98.8534 49.8419 98.3264 49.0564 97.6615 48.3965ZM92.6251 92.6249H71.25V67.6874C71.25 66.7426 70.8747 65.8365 70.2066 65.1684C69.5385 64.5003 68.6324 64.1249 67.6875 64.1249H46.3125C45.3677 64.1249 44.4616 64.5003 43.7935 65.1684C43.1254 65.8365 42.75 66.7426 42.75 67.6874V92.6249H21.375V53.4374L57 17.8124L92.6251 53.4374V92.6249Z" fill="#2B4E23"/>
</svg>
