<svg width="46" height="44" viewBox="0 0 46 44" fill="none" xmlns="http://www.w3.org/2000/svg">
<g filter="url(#filter0_d_439_450)">
<path d="M21.3011 1.37684C21.8996 -0.466241 24.5071 -0.46624 25.1056 1.37684L28.0882 10.562C28.3558 11.3862 29.1238 11.9443 29.9904 11.9443H39.6449C41.5821 11.9443 42.3878 14.4229 40.8209 15.562L33.0082 21.2418C32.3076 21.751 32.0145 22.6534 32.282 23.4771L35.2657 32.6657C35.8641 34.5085 33.7546 36.0404 32.1874 34.9011L24.3794 29.2247C23.6782 28.715 22.7285 28.715 22.0273 29.2247L14.2193 34.9011C12.6521 36.0404 10.5426 34.5085 11.141 32.6657L14.1247 23.4771C14.3922 22.6534 14.0991 21.751 13.3985 21.2417L5.58578 15.562C4.01892 14.4229 4.82467 11.9443 6.76182 11.9443H16.4163C17.2829 11.9443 18.0509 11.3862 18.3185 10.562L21.3011 1.37684Z" fill="#2FFF00"/>
<path d="M22.2524 1.68579C22.5517 0.764253 23.8555 0.764252 24.1548 1.68579L27.1372 10.8704C27.5387 12.1067 28.6908 12.9446 29.9907 12.9446H39.645C40.6135 12.9447 41.0163 14.1837 40.2329 14.7532L32.4204 20.4329C31.3696 21.1968 30.9293 22.5507 31.3306 23.7864L34.3149 32.9749C34.6137 33.896 33.5593 34.6614 32.7759 34.092L24.9673 28.4163C23.9155 27.6516 22.4907 27.6516 21.439 28.4163L13.6313 34.092C12.8478 34.6617 11.7933 33.8962 12.0923 32.9749L15.0757 23.7864C15.4769 22.5508 15.0375 21.1968 13.9868 20.4329L6.17334 14.7532C5.39028 14.1835 5.79374 12.9446 6.76221 12.9446H16.4165C17.7163 12.9445 18.8686 12.1066 19.27 10.8704L22.2524 1.68579Z" stroke="#214419" stroke-width="2"/>
</g>
<defs>
<filter id="filter0_d_439_450" x="0.757812" y="-0.00549316" width="44.8911" height="43.298" filterUnits="userSpaceOnUse" color-interpolation-filters="sRGB">
<feFlood flood-opacity="0" result="BackgroundImageFix"/>
<feColorMatrix in="SourceAlpha" type="matrix" values="0 0 0 0 0 0 0 0 0 0 0 0 0 0 0 0 0 0 127 0" result="hardAlpha"/>
<feOffset dy="4"/>
<feGaussianBlur stdDeviation="2"/>
<feComposite in2="hardAlpha" operator="out"/>
<feColorMatrix type="matrix" values="0 0 0 0 0 0 0 0 0 0 0 0 0 0 0 0 0 0 0.25 0"/>
<feBlend mode="normal" in2="BackgroundImageFix" result="effect1_dropShadow_439_450"/>
<feBlend mode="normal" in="SourceGraphic" in2="effect1_dropShadow_439_450" result="shape"/>
</filter>
</defs>
</svg>
