<svg width="85" height="64" viewBox="0 0 85 64" fill="none" xmlns="http://www.w3.org/2000/svg">
<path d="M24.2908 22.2483L3.38672 41.4122L24.2908 60.5761M3.38672 41.4122H60.873C66.4171 41.4122 71.7341 39.3932 75.6544 35.7992C79.5747 32.2053 81.7771 27.3309 81.7771 22.2483C81.7771 17.1658 79.5747 12.2914 75.6544 8.69744C71.7341 5.10352 66.4171 3.08447 60.873 3.08447H55.647" fill="#A13D00"/>
<path d="M24.2908 22.2483L3.38672 41.4122M3.38672 41.4122L24.2908 60.5761M3.38672 41.4122H60.873C66.4171 41.4122 71.7341 39.3932 75.6544 35.7992C79.5747 32.2053 81.7771 27.3309 81.7771 22.2483C81.7771 17.1658 79.5747 12.2914 75.6544 8.69744C71.7341 5.10352 66.4171 3.08447 60.873 3.08447H55.647" stroke="white" stroke-width="6" stroke-linecap="round" stroke-linejoin="round"/>
</svg>
