<svg width="74" height="68" viewBox="0 0 74 68" fill="none" xmlns="http://www.w3.org/2000/svg">
<g filter="url(#filter0_d_759_200)">
<path d="M16.5807 59.1191H57.6027V53.8208H63.463V48.5225H69.3232V32.6275H63.463V37.9258H57.6027V27.3291H51.7424V16.7325H45.8821V11.4341H40.0218V22.0308H34.1616V6.1358H28.3013V11.4341H22.441V22.0308H16.5807V37.9258H10.7204V27.3291H4.86017V43.2241H10.7204V53.8208H16.5807V59.1191ZM28.3013 53.8208V48.5225H22.441V43.2241H28.3013V32.6275H34.1616V37.9258H40.0218V43.2241H45.8821V37.9258H51.7424V48.5225H45.8821V53.8208H28.3013ZM34.1616 6.1358H40.0218V0.837463H34.1616V6.1358ZM63.463 27.3291H69.3232V16.7325H63.463V27.3291ZM57.6027 16.7325H63.463V11.4341H57.6027V16.7325Z" fill="#D9FF00"/>
<path d="M16.5807 59.1191H57.6027V53.8208H63.463V48.5225H69.3232V32.6275H63.463V37.9258H57.6027V27.3291H51.7424V16.7325H45.8821V11.4341H40.0218V22.0308H34.1616V6.1358H28.3013V11.4341H22.441V22.0308H16.5807V37.9258H10.7204V27.3291H4.86017V43.2241H10.7204V53.8208H16.5807V59.1191ZM28.3013 53.8208V48.5225H22.441V43.2241H28.3013V32.6275H34.1616V37.9258H40.0218V43.2241H45.8821V37.9258H51.7424V48.5225H45.8821V53.8208H28.3013ZM34.1616 6.1358H40.0218V0.837463H34.1616V6.1358ZM63.463 27.3291H69.3232V16.7325H63.463V27.3291ZM57.6027 16.7325H63.463V11.4341H57.6027V16.7325Z" fill="#F60000" fill-opacity="0.65"/>
</g>
<defs>
<filter id="filter0_d_759_200" x="0.860168" y="0.837463" width="72.4631" height="66.2817" filterUnits="userSpaceOnUse" color-interpolation-filters="sRGB">
<feFlood flood-opacity="0" result="BackgroundImageFix"/>
<feColorMatrix in="SourceAlpha" type="matrix" values="0 0 0 0 0 0 0 0 0 0 0 0 0 0 0 0 0 0 127 0" result="hardAlpha"/>
<feOffset dy="4"/>
<feGaussianBlur stdDeviation="2"/>
<feComposite in2="hardAlpha" operator="out"/>
<feColorMatrix type="matrix" values="0 0 0 0 0 0 0 0 0 0 0 0 0 0 0 0 0 0 0.25 0"/>
<feBlend mode="normal" in2="BackgroundImageFix" result="effect1_dropShadow_759_200"/>
<feBlend mode="normal" in="SourceGraphic" in2="effect1_dropShadow_759_200" result="shape"/>
</filter>
</defs>
</svg>
