<svg width="88" height="81" viewBox="0 0 88 81" fill="none" xmlns="http://www.w3.org/2000/svg">
<g filter="url(#filter0_d_864_247)">
<path d="M37.7745 4.91083C39.9948 -1.26479 48.7286 -1.26479 50.9489 4.91083L55.9187 18.7341C56.9178 21.5128 59.5531 23.3658 62.5059 23.3658H76.9577C83.9089 23.3658 86.6103 32.4019 80.7997 36.2172L70.3675 43.067C67.6626 44.8431 66.5276 48.2416 67.6223 51.2867L71.8869 63.1481C74.1614 69.4747 67.0775 75.0578 61.4576 71.3678L48.2037 62.6653C45.8713 61.1338 42.8521 61.1338 40.5196 62.6653L27.2658 71.3678C21.6459 75.0578 14.5619 69.4747 16.8365 63.1481L21.101 51.2867C22.1958 48.2416 21.0608 44.8431 18.3559 43.067L7.92367 36.2172C2.11307 32.4019 4.8145 23.3658 11.7657 23.3658H26.2174C29.1703 23.3658 31.8056 21.5128 32.8046 18.7341L37.7745 4.91083Z" fill="#A13D00"/>
<path d="M39.6562 5.5871C41.2423 1.17635 47.4802 1.1765 49.0664 5.5871L54.0371 19.4103C55.3216 22.983 58.7093 25.3654 62.5059 25.3654H76.958C81.9228 25.3657 83.8522 31.8199 79.7021 34.5451L69.2695 41.3947C65.7919 43.6782 64.3328 48.0481 65.7402 51.9631L70.0049 63.8244C71.6295 68.3432 66.5698 72.3316 62.5557 69.6965L49.3018 60.9933C46.3029 59.0243 42.4207 59.0243 39.4219 60.9933L26.168 69.6955C22.1538 72.3312 17.0941 68.3434 18.7188 63.8244L22.9834 51.9631C24.3908 48.0481 22.9308 43.6781 19.4531 41.3947L9.02148 34.5451C4.87115 31.8199 6.80056 25.3655 11.7656 25.3654H26.2178C30.0142 25.3653 33.4021 22.9829 34.6865 19.4103L39.6562 5.5871Z" stroke="white" stroke-width="4"/>
</g>
<defs>
<filter id="filter0_d_864_247" x="0.75293" y="0.279114" width="87.2175" height="80.2685" filterUnits="userSpaceOnUse" color-interpolation-filters="sRGB">
<feFlood flood-opacity="0" result="BackgroundImageFix"/>
<feColorMatrix in="SourceAlpha" type="matrix" values="0 0 0 0 0 0 0 0 0 0 0 0 0 0 0 0 0 0 127 0" result="hardAlpha"/>
<feOffset dy="4"/>
<feGaussianBlur stdDeviation="2"/>
<feComposite in2="hardAlpha" operator="out"/>
<feColorMatrix type="matrix" values="0 0 0 0 0 0 0 0 0 0 0 0 0 0 0 0 0 0 0.25 0"/>
<feBlend mode="normal" in2="BackgroundImageFix" result="effect1_dropShadow_864_247"/>
<feBlend mode="normal" in="SourceGraphic" in2="effect1_dropShadow_864_247" result="shape"/>
</filter>
</defs>
</svg>
