<svg width="88" height="81" viewBox="0 0 88 81" fill="none" xmlns="http://www.w3.org/2000/svg">
<g filter="url(#filter0_d_864_246)">
<path d="M37.1645 4.91083C39.3848 -1.26479 48.1186 -1.26479 50.3389 4.91083L55.3088 18.7341C56.3078 21.5128 58.9431 23.3658 61.896 23.3658H76.3477C83.2989 23.3658 86.0003 32.4019 80.1897 36.2172L69.7575 43.067C67.0526 44.8431 65.9176 48.2416 67.0124 51.2867L71.2769 63.1481C73.5514 69.4747 66.4675 75.0578 60.8476 71.3678L47.5938 62.6653C45.2613 61.1338 42.2421 61.1338 39.9097 62.6653L26.6558 71.3678C21.0359 75.0578 13.952 69.4747 16.2265 63.1481L20.4911 51.2867C21.5858 48.2416 20.4508 44.8431 17.7459 43.067L7.31368 36.2172C1.50308 32.4019 4.20452 23.3658 11.1557 23.3658H25.6074C28.5603 23.3658 31.1956 21.5128 32.1946 18.7341L37.1645 4.91083Z" fill="#272B27"/>
<path d="M39.0463 5.5871C40.6323 1.17635 46.8702 1.1765 48.4564 5.5871L53.4271 19.4103C54.7116 22.983 58.0994 25.3654 61.8959 25.3654H76.348C81.3128 25.3657 83.2422 31.8199 79.0922 34.5451L68.6595 41.3947C65.1819 43.6782 63.7228 48.0481 65.1302 51.9631L69.3949 63.8244C71.0195 68.3432 65.9598 72.3316 61.9457 69.6965L48.6918 60.9933C45.6929 59.0243 41.8107 59.0243 38.8119 60.9933L25.558 69.6955C21.5438 72.3312 16.4841 68.3434 18.1088 63.8244L22.3734 51.9631C23.7808 48.0481 22.3208 43.6781 18.8431 41.3947L8.4115 34.5451C4.26117 31.8199 6.19058 25.3655 11.1556 25.3654H25.6078C29.4042 25.3653 32.7921 22.9829 34.0765 19.4103L39.0463 5.5871Z" stroke="white" stroke-width="4"/>
</g>
<defs>
<filter id="filter0_d_864_246" x="0.142944" y="0.279114" width="87.2175" height="80.2685" filterUnits="userSpaceOnUse" color-interpolation-filters="sRGB">
<feFlood flood-opacity="0" result="BackgroundImageFix"/>
<feColorMatrix in="SourceAlpha" type="matrix" values="0 0 0 0 0 0 0 0 0 0 0 0 0 0 0 0 0 0 127 0" result="hardAlpha"/>
<feOffset dy="4"/>
<feGaussianBlur stdDeviation="2"/>
<feComposite in2="hardAlpha" operator="out"/>
<feColorMatrix type="matrix" values="0 0 0 0 0 0 0 0 0 0 0 0 0 0 0 0 0 0 0.25 0"/>
<feBlend mode="normal" in2="BackgroundImageFix" result="effect1_dropShadow_864_246"/>
<feBlend mode="normal" in="SourceGraphic" in2="effect1_dropShadow_864_246" result="shape"/>
</filter>
</defs>
</svg>
